<?xml version="1.0" encoding="utf-8"?>
<!-- Generator: Adobe Illustrator 27.3.1, SVG Export Plug-In . SVG Version: 6.00 Build 0)  -->
<svg version="1.1" id="Layer_1" xmlns="http://www.w3.org/2000/svg" xmlns:xlink="http://www.w3.org/1999/xlink" x="0px" y="0px"
	 viewBox="0 0 1366 768" style="enable-background:new 0 0 1366 768;" xml:space="preserve">
<style type="text/css">
	.st0{fill:#061047;}
	.st1{fill:#8A62F9;}
	.st2{fill:#525252;}
	.st3{fill:#3E3E3E;}
	.st4{fill:#BDBDBD;}
	.st5{fill:#6E6E6E;}
	.st6{fill:#1C1C1C;}
	.st7{fill:#141414;}
	.st8{fill:#161616;}
	.st9{fill:#252525;}
	.st10{fill:#050505;}
	.st11{fill:#202020;}
	.st12{fill:#313131;}
	.st13{fill:#4A4A4A;}
	.st14{fill:#2F2F2F;}
	.st15{fill:#AFAFAF;}
	.st16{fill:#FAFAFA;}
	.st17{fill:#565656;}
	.st18{fill:#0E0E0E;}
	.st19{fill:#A1A1A1;}
	.st20{fill:#E7E7E7;}
	.st21{fill:#676767;}
	.st22{fill:#373737;}
	.st23{fill:#8C8C8C;}
	.st24{fill:#A60000;}
	.st25{fill:#FF4C57;}
	.st26{fill:#E31B25;}
	.st27{fill:#575757;}
	.st28{fill:#080808;}
	.st29{fill:#B9B9B9;}
	.st30{fill:#414141;}
</style>
<g id="XMLID_3375_">
	<g id="XMLID_3565_">
		<path id="XMLID_3570_" d="M495.51,248.73l-0.46-0.35c19.08-25.03,41.88-46.77,67.78-64.62l0.33,0.47
			C537.31,202.05,514.55,223.75,495.51,248.73z"/>
		<g id="XMLID_3568_">
			<path id="XMLID_3569_" d="M561.68,182.32c0.97-0.69,2.33-0.46,3.02,0.51c0.69,0.97,0.46,2.33-0.51,3.02
				c-0.97,0.69-2.33,0.46-3.02-0.51C560.48,184.36,560.71,183.01,561.68,182.32z"/>
		</g>
		<g id="XMLID_3566_">
			<path id="XMLID_3567_" d="M493.67,247.15c-0.74,0.94-0.57,2.3,0.37,3.04c0.94,0.74,2.3,0.57,3.04-0.37
				c0.74-0.94,0.57-2.3-0.37-3.04C495.77,246.05,494.41,246.21,493.67,247.15z"/>
		</g>
	</g>
	<path id="XMLID_3562_" d="M684.22,604.06c-120.97,0-219.39-98.42-219.39-219.39c0-120.97,98.42-219.39,219.39-219.39
		s219.39,98.42,219.39,219.39C903.62,505.65,805.2,604.06,684.22,604.06z M684.22,166.14c-120.5,0-218.53,98.03-218.53,218.53
		S563.72,603.2,684.22,603.2c120.5,0,218.53-98.03,218.53-218.53S804.72,166.14,684.22,166.14z"/>
	<path id="XMLID_3418_" d="M684.22,594.73c-1.04,0-2.07-0.01-3.1-0.02l0.01-0.58c1.53,0.02,3.07,0.03,4.6,0.02l0,0.58
		C685.23,594.73,684.73,594.73,684.22,594.73z M690.35,594.64l-0.02-0.58c1.51-0.04,3.06-0.1,4.59-0.18l0.03,0.58
		C693.41,594.54,691.86,594.6,690.35,594.64z M676.52,594.59c-1.53-0.05-3.08-0.13-4.61-0.22l0.03-0.58
		c1.52,0.09,3.07,0.16,4.59,0.22L676.52,594.59z M699.56,594.18l-0.04-0.57c1.52-0.11,3.06-0.24,4.58-0.38l0.05,0.57
		C702.63,593.94,701.08,594.07,699.56,594.18z M667.31,594.06c-1.55-0.12-3.09-0.26-4.59-0.42l0.06-0.57
		c1.5,0.15,3.04,0.29,4.58,0.42L667.31,594.06z M708.74,593.31l-0.07-0.57c1.49-0.17,3.02-0.37,4.56-0.58l0.08,0.57
		C711.77,592.94,710.23,593.14,708.74,593.31z M658.14,593.12c-1.51-0.19-3.04-0.39-4.57-0.62l0.08-0.57
		c1.52,0.22,3.05,0.43,4.56,0.62L658.14,593.12z M717.87,592.05l-0.09-0.57c1.49-0.24,3.01-0.5,4.53-0.78l0.1,0.57
		C720.9,591.54,719.37,591.81,717.87,592.05z M649.01,591.79c-1.51-0.26-3.04-0.53-4.54-0.82l0.11-0.56
		c1.49,0.29,3.02,0.56,4.53,0.82L649.01,591.79z M726.94,590.38l-0.12-0.57c1.5-0.31,3.01-0.64,4.49-0.98l0.13,0.56
		C729.96,589.74,728.45,590.07,726.94,590.38z M639.96,590.06c-1.5-0.32-3.01-0.66-4.5-1.02l0.13-0.56
		c1.48,0.35,2.99,0.69,4.49,1.01L639.96,590.06z M735.93,588.32l-0.14-0.56c1.47-0.37,2.97-0.77,4.45-1.18l0.15,0.55
		C738.91,587.55,737.41,587.94,735.93,588.32z M630.98,587.92c-1.47-0.38-2.97-0.79-4.45-1.22l0.16-0.55
		c1.48,0.42,2.97,0.83,4.44,1.21L630.98,587.92z M744.82,585.86l-0.17-0.55c1.49-0.45,2.97-0.91,4.41-1.38l0.18,0.55
		C747.8,584.94,746.31,585.41,744.82,585.86z M622.12,585.39c-1.43-0.44-2.91-0.92-4.39-1.41l0.18-0.55
		c1.48,0.49,2.95,0.97,4.38,1.41L622.12,585.39z M753.62,582.99l-0.19-0.54c1.44-0.5,2.9-1.03,4.34-1.57l0.2,0.54
		C756.53,581.96,755.06,582.49,753.62,582.99z M613.37,582.48c-1.43-0.51-2.88-1.05-4.32-1.6l0.21-0.54
		c1.44,0.55,2.89,1.09,4.31,1.6L613.37,582.48z M762.29,579.74l-0.21-0.54c1.41-0.57,2.85-1.16,4.26-1.76l0.22,0.53
		C765.15,578.58,763.71,579.18,762.29,579.74z M604.76,579.18c-1.4-0.57-2.82-1.17-4.23-1.79l0.23-0.53
		c1.41,0.61,2.83,1.21,4.22,1.78L604.76,579.18z M770.8,576.12l-0.24-0.52c1.4-0.64,2.81-1.29,4.18-1.95l0.25,0.52
		C773.61,574.82,772.2,575.48,770.8,576.12z M596.33,575.51c-1.38-0.63-2.77-1.3-4.15-1.97l0.25-0.52c1.38,0.67,2.77,1.33,4.14,1.97
		L596.33,575.51z M779.13,572.12l-0.26-0.51c1.38-0.7,2.75-1.42,4.09-2.13l0.27,0.51C781.89,570.7,780.51,571.42,779.13,572.12z
		 M588.06,571.47c-1.37-0.71-2.74-1.43-4.06-2.15l0.28-0.51c1.32,0.72,2.69,1.44,4.05,2.15L588.06,571.47z M787.28,567.75l-0.28-0.5
		c1.34-0.76,2.68-1.53,3.99-2.31l0.29,0.49C789.97,566.22,788.62,567,787.28,567.75z M579.98,567.08c-1.31-0.75-2.65-1.53-3.97-2.33
		l0.3-0.49c1.32,0.79,2.65,1.57,3.96,2.32L579.98,567.08z M795.22,563.04l-0.31-0.49c1.3-0.81,2.6-1.64,3.88-2.48l0.32,0.48
		C797.83,561.39,796.52,562.23,795.22,563.04z M572.1,562.33c-1.29-0.81-2.59-1.66-3.86-2.5l0.32-0.48c1.27,0.84,2.57,1.68,3.85,2.5
		L572.1,562.33z M802.95,557.98l-0.33-0.48c1.25-0.86,2.51-1.75,3.77-2.65l0.34,0.47C805.47,556.23,804.2,557.12,802.95,557.98z
		 M564.43,557.24c-1.24-0.87-2.51-1.76-3.75-2.67l0.34-0.46c1.24,0.9,2.5,1.8,3.74,2.66L564.43,557.24z M810.44,552.59l-0.35-0.46
		c1.2-0.9,2.43-1.85,3.65-2.81l0.36,0.45C812.88,550.74,811.65,551.69,810.44,552.59z M556.98,551.82
		c-1.21-0.92-2.43-1.88-3.63-2.83l0.36-0.45c1.2,0.95,2.42,1.91,3.62,2.82L556.98,551.82z M817.69,546.88l-0.37-0.45
		c1.18-0.97,2.36-1.97,3.52-2.96l0.38,0.44C820.06,544.91,818.87,545.91,817.69,546.88z M549.78,546.07
		c-1.17-0.98-2.35-1.99-3.51-2.99l0.38-0.43c1.15,1,2.33,2,3.5,2.98L549.78,546.07z M824.68,540.86l-0.39-0.43
		c1.15-1.04,2.29-2.08,3.39-3.11l0.39,0.42C826.98,538.77,825.84,539.82,824.68,540.86z M542.83,540.02
		c-1.13-1.03-2.26-2.08-3.37-3.14l0.4-0.42c1.11,1.06,2.24,2.11,3.37,3.13L542.83,540.02z M831.4,534.55l-0.4-0.41
		c1.08-1.06,2.17-2.16,3.25-3.26l0.41,0.4C833.58,532.38,832.48,533.48,831.4,534.55z M536.15,533.67
		c-1.08-1.07-2.16-2.18-3.23-3.29l0.41-0.4c1.07,1.11,2.15,2.21,3.23,3.28L536.15,533.67z M837.84,527.94l-0.42-0.39
		c1.03-1.11,2.08-2.25,3.1-3.4l0.43,0.39C839.92,525.69,838.87,526.83,837.84,527.94z M529.76,527.02
		c-1.03-1.12-2.07-2.27-3.09-3.43l0.43-0.38c1.02,1.15,2.05,2.3,3.08,3.41L529.76,527.02z M843.98,521.07l-0.44-0.37
		c0.99-1.16,1.98-2.35,2.95-3.53l0.44,0.36C845.97,518.71,844.97,519.9,843.98,521.07z M523.65,520.1
		c-0.98-1.16-1.97-2.36-2.94-3.56l0.45-0.36c0.96,1.19,1.95,2.39,2.93,3.55L523.65,520.1z M849.81,513.93l-0.45-0.36
		c0.95-1.21,1.88-2.44,2.79-3.65l0.46,0.34C851.7,511.49,850.76,512.72,849.81,513.93z M517.85,512.93
		c-0.92-1.2-1.86-2.43-2.78-3.68l0.46-0.34c0.92,1.25,1.85,2.48,2.77,3.67L517.85,512.93z M855.32,506.56l-0.47-0.33
		c0.89-1.25,1.78-2.52,2.63-3.77l0.48,0.32C857.1,504.03,856.22,505.3,855.32,506.56z M512.37,505.5c-0.87-1.24-1.75-2.52-2.62-3.8
		l0.48-0.32c0.86,1.28,1.74,2.56,2.61,3.79L512.37,505.5z M860.51,498.95l-0.48-0.31c0.83-1.28,1.66-2.59,2.46-3.88l0.49,0.3
		C862.17,496.35,861.34,497.66,860.51,498.95z M507.22,497.84c-0.83-1.29-1.65-2.61-2.45-3.92l0.49-0.3c0.79,1.3,1.61,2.61,2.44,3.9
		L507.22,497.84z M865.35,491.12l-0.5-0.29c0.77-1.3,1.53-2.64,2.29-3.98l0.5,0.28C866.89,488.47,866.12,489.82,865.35,491.12z
		 M502.41,489.95c-0.78-1.34-1.54-2.69-2.27-4.02l0.5-0.28c0.73,1.32,1.49,2.67,2.27,4.01L502.41,489.95z M869.84,483.09l-0.51-0.27
		c0.72-1.36,1.43-2.73,2.11-4.07l0.52,0.26C871.28,480.36,870.56,481.73,869.84,483.09z M497.95,481.86
		c-0.71-1.37-1.42-2.75-2.1-4.12l0.52-0.26c0.68,1.37,1.38,2.75,2.09,4.11L497.95,481.86z M873.98,474.88l-0.52-0.25
		c0.67-1.4,1.31-2.8,1.92-4.16l0.53,0.24C875.3,472.07,874.65,473.47,873.98,474.88z M493.85,473.57c-0.65-1.38-1.29-2.8-1.91-4.21
		l0.53-0.23c0.62,1.41,1.26,2.82,1.91,4.2L493.85,473.57z M877.75,466.49l-0.53-0.22c0.59-1.38,1.17-2.81,1.74-4.24l0.54,0.21
		C878.92,463.68,878.34,465.11,877.75,466.49z M490.12,465.11c-0.59-1.41-1.17-2.86-1.72-4.29l0.54-0.21
		c0.56,1.43,1.13,2.87,1.72,4.28L490.12,465.11z M881.15,457.94l-0.54-0.2c0.53-1.42,1.05-2.88,1.56-4.33l0.54,0.19
		C882.21,455.05,881.68,456.51,881.15,457.94z M486.77,456.49c-0.53-1.45-1.04-2.92-1.53-4.37l0.55-0.19c0.49,1.45,1,2.91,1.53,4.35
		L486.77,456.49z M884.17,449.23l-0.55-0.18c0.47-1.46,0.93-2.94,1.36-4.39l0.55,0.16C885.11,446.28,884.65,447.76,884.17,449.23z
		 M483.79,447.73c-0.46-1.46-0.91-2.95-1.33-4.42l0.55-0.16c0.43,1.46,0.87,2.95,1.33,4.4L483.79,447.73z M886.81,440.39l-0.55-0.15
		c0.41-1.49,0.8-2.99,1.17-4.45l0.56,0.14C887.61,437.4,887.22,438.9,886.81,440.39z M481.22,438.87c-0.39-1.47-0.77-2.97-1.14-4.47
		l0.56-0.14c0.36,1.49,0.74,2.99,1.13,4.46L481.22,438.87z M889.05,431.44l-0.56-0.13c0.34-1.49,0.67-3,0.97-4.49l0.56,0.11
		C889.72,428.44,889.39,429.95,889.05,431.44z M479.05,429.91c-0.33-1.49-0.64-3.01-0.94-4.52l0.56-0.11
		c0.29,1.5,0.61,3.01,0.94,4.5L479.05,429.91z M890.9,422.41l-0.57-0.1c0.27-1.51,0.53-3.04,0.77-4.53l0.57,0.09
		C891.43,419.36,891.17,420.89,890.9,422.41z M477.27,420.86c-0.26-1.52-0.51-3.06-0.74-4.55l0.57-0.09
		c0.23,1.49,0.47,3.02,0.74,4.54L477.27,420.86z M892.35,413.3l-0.57-0.08c0.21-1.54,0.4-3.07,0.57-4.56l0.57,0.07
		C892.75,410.22,892.56,411.76,892.35,413.3z M475.89,411.74c-0.19-1.52-0.38-3.06-0.54-4.58l0.57-0.06
		c0.16,1.51,0.34,3.05,0.54,4.57L475.89,411.74z M893.39,404.14l-0.57-0.05c0.14-1.52,0.26-3.06,0.37-4.58l0.57,0.04
		C893.66,401.07,893.53,402.62,893.39,404.14z M474.92,402.57c-0.13-1.52-0.24-3.07-0.34-4.6l0.57-0.04
		c0.1,1.52,0.21,3.07,0.34,4.59L474.92,402.57z M894.03,394.94l-0.58-0.03c0.07-1.53,0.13-3.06,0.17-4.6l0.58,0.02
		C894.16,391.87,894.11,393.41,894.03,394.94z M474.34,393.36c-0.06-1.53-0.11-3.08-0.14-4.61l0.58-0.01
		c0.03,1.52,0.08,3.07,0.14,4.6L474.34,393.36z M894.28,385.72l-0.58,0c0-0.35,0-0.7,0-1.05c0-1.51-0.02-3.06-0.05-4.6l0.58-0.01
		c0.03,1.54,0.05,3.09,0.05,4.61C894.28,385.02,894.28,385.37,894.28,385.72z M474.74,384.14l-0.58,0c0-1.53,0.02-3.08,0.06-4.61
		l0.58,0.01C474.77,381.07,474.75,382.61,474.74,384.14z M893.51,375.48c-0.06-1.51-0.15-3.06-0.25-4.59l0.57-0.04
		c0.1,1.54,0.18,3.09,0.25,4.6L893.51,375.48z M474.96,374.95l-0.57-0.03c0.07-1.54,0.16-3.09,0.26-4.6l0.57,0.04
		C475.12,371.87,475.03,373.41,474.96,374.95z M892.91,366.3c-0.13-1.52-0.28-3.06-0.45-4.58l0.57-0.06
		c0.17,1.52,0.32,3.06,0.45,4.59L892.91,366.3z M475.58,365.77l-0.57-0.05c0.14-1.52,0.29-3.06,0.46-4.59l0.57,0.06
		C475.87,362.72,475.72,364.26,475.58,365.77z M891.91,357.16c-0.2-1.53-0.42-3.07-0.65-4.55l0.57-0.09
		c0.23,1.49,0.45,3.03,0.65,4.56L891.91,357.16z M476.6,356.63l-0.57-0.08c0.2-1.51,0.42-3.05,0.66-4.56l0.57,0.09
		C477.02,353.59,476.8,355.12,476.6,356.63z M890.52,348.07c-0.26-1.49-0.55-3.01-0.85-4.52l0.56-0.11c0.3,1.52,0.59,3.04,0.85,4.53
		L890.52,348.07z M478.02,347.55l-0.57-0.1c0.27-1.52,0.56-3.04,0.86-4.53l0.57,0.11C478.58,344.51,478.29,346.03,478.02,347.55z
		 M888.72,339.05c-0.33-1.48-0.68-2.99-1.05-4.48l0.56-0.14c0.37,1.5,0.72,3.01,1.05,4.49L888.72,339.05z M479.84,338.53l-0.56-0.13
		c0.34-1.5,0.69-3.01,1.06-4.49l0.56,0.14C480.53,335.53,480.18,337.04,479.84,338.53z M886.53,330.11c-0.4-1.5-0.82-2.98-1.25-4.43
		l0.55-0.16c0.42,1.45,0.84,2.94,1.25,4.44L886.53,330.11z M482.05,329.61l-0.56-0.15c0.4-1.48,0.83-2.97,1.26-4.44l0.55,0.16
		C482.88,326.64,482.46,328.13,482.05,329.61z M883.94,321.29c-0.46-1.45-0.95-2.92-1.44-4.38l0.54-0.19
		c0.5,1.46,0.99,2.94,1.45,4.4L883.94,321.29z M484.66,320.79l-0.55-0.18c0.46-1.44,0.95-2.92,1.45-4.38l0.54,0.19
		C485.61,317.88,485.12,319.35,484.66,320.79z M880.96,312.55c-0.52-1.42-1.07-2.88-1.64-4.31l0.53-0.21
		c0.57,1.44,1.12,2.9,1.64,4.33L880.96,312.55z M487.66,312.09l-0.54-0.2c0.54-1.45,1.09-2.9,1.65-4.31l0.54,0.21
		C488.74,309.2,488.19,310.64,487.66,312.09z M877.59,303.96c-0.58-1.4-1.2-2.82-1.82-4.23l0.53-0.23c0.63,1.42,1.25,2.85,1.83,4.25
		L877.59,303.96z M491.03,303.55l-0.53-0.22c0.59-1.4,1.2-2.82,1.83-4.22l0.53,0.24C492.23,300.74,491.61,302.15,491.03,303.55z
		 M873.85,295.54c-0.65-1.38-1.32-2.77-2.01-4.15l0.52-0.26c0.69,1.38,1.37,2.78,2.02,4.16L873.85,295.54z M494.76,295.18
		l-0.52-0.25c0.66-1.39,1.34-2.78,2.01-4.13l0.52,0.26C496.1,292.4,495.42,293.79,494.76,295.18z M869.74,287.28
		c-0.71-1.36-1.45-2.72-2.19-4.05l0.5-0.28c0.74,1.34,1.48,2.7,2.2,4.07L869.74,287.28z M498.87,286.98l-0.51-0.27
		c0.71-1.35,1.45-2.71,2.19-4.04l0.5,0.28C500.31,284.28,499.58,285.63,498.87,286.98z M865.27,279.23
		c-0.77-1.32-1.56-2.65-2.36-3.95l0.49-0.3c0.8,1.31,1.6,2.64,2.37,3.96L865.27,279.23z M503.33,278.96l-0.5-0.29
		c0.77-1.31,1.56-2.64,2.37-3.95l0.49,0.3C504.89,276.33,504.09,277.66,503.33,278.96z M860.45,271.38
		c-0.82-1.28-1.68-2.57-2.54-3.84l0.48-0.32c0.86,1.28,1.72,2.57,2.54,3.85L860.45,271.38z M508.14,271.15l-0.48-0.31
		c0.83-1.28,1.68-2.58,2.54-3.84l0.48,0.32C509.82,268.58,508.97,269.87,508.14,271.15z M855.3,263.75
		c-0.88-1.24-1.79-2.49-2.7-3.73l0.46-0.34c0.92,1.24,1.83,2.49,2.71,3.74L855.3,263.75z M513.29,263.54l-0.47-0.33
		c0.88-1.24,1.79-2.49,2.71-3.73l0.46,0.34C515.07,261.06,514.16,262.31,513.29,263.54z M849.82,256.35
		c-0.95-1.22-1.91-2.43-2.86-3.6l0.45-0.36c0.95,1.17,1.92,2.39,2.87,3.61L849.82,256.35z M518.77,256.17l-0.45-0.35
		c0.94-1.21,1.91-2.42,2.87-3.61l0.45,0.36C520.67,253.75,519.71,254.96,518.77,256.17z M844.02,249.21c-0.99-1.16-2-2.33-3.02-3.47
		l0.43-0.38c1.02,1.14,2.03,2.32,3.02,3.48L844.02,249.21z M524.57,249.04l-0.44-0.37c0.99-1.17,2.01-2.34,3.02-3.48l0.43,0.38
		C526.57,246.71,525.56,247.88,524.57,249.04z M837.91,242.32c-1.02-1.11-2.09-2.23-3.16-3.34l0.41-0.4
		c1.08,1.11,2.14,2.24,3.17,3.35L837.91,242.32z M530.67,242.17l-0.42-0.39c1.04-1.12,2.11-2.25,3.17-3.34l0.41,0.4
		C532.78,239.93,531.71,241.06,530.67,242.17z M831.52,235.72c-1.08-1.06-2.19-2.14-3.3-3.2l0.4-0.42c1.12,1.06,2.23,2.14,3.31,3.21
		L831.52,235.72z M537.08,235.57l-0.41-0.41c1.09-1.08,2.21-2.16,3.32-3.2l0.4,0.42C539.28,233.42,538.17,234.5,537.08,235.57z
		 M824.84,229.4c-1.13-1.02-2.29-2.05-3.44-3.05l0.38-0.44c1.16,1,2.31,2.03,3.45,3.06L824.84,229.4z M543.76,229.26l-0.39-0.43
		c1.15-1.04,2.31-2.07,3.45-3.06l0.38,0.43C546.07,227.19,544.91,228.22,543.76,229.26z M817.89,223.37
		c-1.18-0.98-2.38-1.95-3.57-2.9l0.36-0.45c1.19,0.95,2.4,1.92,3.58,2.9L817.89,223.37z M550.72,223.24l-0.37-0.44
		c1.18-0.98,2.39-1.95,3.59-2.9l0.36,0.45C553.1,221.29,551.89,222.26,550.72,223.24z M810.7,217.66c-1.22-0.93-2.46-1.85-3.69-2.73
		l0.34-0.47c1.23,0.89,2.48,1.81,3.7,2.74L810.7,217.66z M557.93,217.52l-0.35-0.46c1.22-0.92,2.47-1.85,3.71-2.74l0.34,0.47
		C560.4,215.68,559.15,216.6,557.93,217.52z M803.26,212.27c-1.26-0.87-2.54-1.74-3.8-2.57l0.32-0.48c1.27,0.84,2.55,1.7,3.81,2.58
		L803.26,212.27z M565.39,212.13l-0.33-0.47c1.26-0.87,2.55-1.74,3.83-2.58l0.32,0.48C567.94,210.4,566.65,211.26,565.39,212.13z
		 M795.6,207.22c-1.28-0.81-2.6-1.61-3.91-2.4l0.3-0.49c1.32,0.79,2.64,1.6,3.92,2.41L795.6,207.22z M573.09,207.07l-0.31-0.49
		c1.3-0.82,2.63-1.63,3.94-2.41l0.29,0.49C575.71,205.44,574.39,206.25,573.09,207.07z M787.72,202.5c-1.32-0.75-2.67-1.5-4.01-2.23
		l0.27-0.51c1.34,0.73,2.7,1.48,4.02,2.23L787.72,202.5z M581,202.35l-0.28-0.5c1.34-0.76,2.7-1.51,4.04-2.24l0.27,0.51
		C583.69,200.84,582.33,201.59,581,202.35z M779.65,198.14c-1.35-0.69-2.73-1.38-4.1-2.05l0.25-0.52c1.38,0.67,2.76,1.36,4.12,2.05
		L779.65,198.14z M589.11,197.98l-0.26-0.51c1.36-0.69,2.75-1.39,4.14-2.06l0.25,0.52C591.86,196.59,590.47,197.28,589.11,197.98z
		 M771.4,194.14c-1.37-0.63-2.78-1.26-4.19-1.86l0.23-0.53c1.41,0.61,2.82,1.24,4.2,1.87L771.4,194.14z M597.41,193.97l-0.24-0.52
		c1.4-0.64,2.82-1.27,4.23-1.87l0.23,0.53C600.23,192.7,598.81,193.33,597.41,193.97z M762.99,190.5c-1.42-0.58-2.86-1.14-4.28-1.68
		l0.21-0.54c1.42,0.54,2.87,1.11,4.29,1.69L762.99,190.5z M605.89,190.33l-0.22-0.53c1.44-0.58,2.89-1.15,4.31-1.68l0.2,0.54
		C608.76,189.19,607.32,189.75,605.89,190.33z M754.39,187.23c-1.45-0.51-2.91-1.02-4.35-1.49l0.18-0.55
		c1.44,0.48,2.91,0.98,4.36,1.5L754.39,187.23z M614.52,187.07l-0.19-0.54c1.45-0.51,2.93-1.01,4.38-1.49l0.18,0.55
		C617.44,186.05,615.97,186.56,614.52,187.07z M745.66,184.34c-1.46-0.45-2.94-0.88-4.41-1.3l0.16-0.55
		c1.47,0.42,2.96,0.85,4.42,1.3L745.66,184.34z M623.29,184.19l-0.17-0.55c1.46-0.44,2.95-0.88,4.43-1.29l0.16,0.55
		C626.23,183.31,624.75,183.75,623.29,184.19z M736.81,181.85c-1.48-0.38-2.98-0.75-4.47-1.1l0.13-0.56
		c1.49,0.35,2.99,0.72,4.48,1.1L736.81,181.85z M632.15,181.71l-0.14-0.56c1.48-0.38,2.98-0.75,4.48-1.09l0.13,0.56
		C635.12,180.97,633.62,181.34,632.15,181.71z M727.86,179.74c-1.49-0.32-3-0.62-4.51-0.9l0.11-0.57c1.51,0.29,3.03,0.59,4.52,0.91
		L727.86,179.74z M641.11,179.63l-0.12-0.56c1.51-0.31,3.03-0.62,4.52-0.89l0.11,0.57C644.12,179.02,642.61,179.32,641.11,179.63z
		 M718.82,178.03c-1.5-0.25-3.03-0.49-4.54-0.7l0.08-0.57c1.52,0.22,3.05,0.46,4.56,0.71L718.82,178.03z M650.15,177.95l-0.09-0.57
		c1.51-0.25,3.04-0.48,4.56-0.69l0.08,0.57C653.18,177.47,651.65,177.7,650.15,177.95z M709.72,176.73
		c-1.51-0.18-3.05-0.35-4.57-0.5l0.06-0.57c1.53,0.15,3.07,0.32,4.58,0.51L709.72,176.73z M659.25,176.66l-0.07-0.57
		c1.51-0.18,3.05-0.35,4.58-0.49l0.05,0.57C662.3,176.32,660.76,176.48,659.25,176.66z M700.57,175.82
		c-1.51-0.12-3.05-0.22-4.59-0.3l0.03-0.57c1.54,0.08,3.09,0.19,4.6,0.3L700.57,175.82z M668.41,175.78l-0.04-0.57
		c1.53-0.11,3.08-0.21,4.6-0.29l0.03,0.57C671.48,175.57,669.93,175.66,668.41,175.78z M691.38,175.31
		c-1.52-0.05-3.06-0.09-4.59-0.1l0.01-0.58c1.53,0.02,3.08,0.05,4.6,0.1L691.38,175.31z M677.59,175.29l-0.02-0.58
		c1.52-0.05,3.07-0.08,4.61-0.09l0.01,0.58C680.65,175.21,679.1,175.25,677.59,175.29z"/>
	<g id="XMLID_3412_">
		<path id="XMLID_3417_" d="M747.74,159.18c-18.72-4.82-38.1-7.3-57.62-7.39c-10.82-0.05-21.7,0.65-32.34,2.07l-0.97,0.13
			l-0.08-0.57l0.97-0.13c10.67-1.42,21.58-2.12,32.42-2.08c19.56,0.08,38.99,2.57,57.76,7.4L747.74,159.18z"/>
		<g id="XMLID_3415_">
			<path id="XMLID_3416_" d="M748.19,156.82c1.16,0.27,1.89,1.44,1.62,2.6c-0.27,1.16-1.44,1.89-2.6,1.62
				c-1.16-0.27-1.89-1.44-1.62-2.6C745.86,157.28,747.02,156.55,748.19,156.82z"/>
		</g>
		<g id="XMLID_3413_">
			<path id="XMLID_3414_" d="M656.59,151.56c-1.18,0.17-2.01,1.26-1.84,2.44c0.17,1.18,1.26,2.01,2.44,1.84
				c1.18-0.17,2.01-1.26,1.84-2.44C658.87,152.22,657.77,151.39,656.59,151.56z"/>
		</g>
	</g>
	<g id="XMLID_3406_">
		<path id="XMLID_3411_" d="M634.34,611.62c18.95,3.81,38.44,5.26,57.93,4.31c10.8-0.53,21.63-1.81,32.18-3.79l0.96-0.18l0.11,0.57
			l-0.96,0.18c-10.58,1.99-21.43,3.27-32.26,3.8c-19.54,0.96-39.07-0.49-58.07-4.32L634.34,611.62z"/>
		<g id="XMLID_3409_">
			<path id="XMLID_3410_" d="M634.02,613.99c-1.18-0.21-1.96-1.33-1.75-2.51c0.21-1.18,1.33-1.96,2.51-1.75
				c1.18,0.21,1.96,1.33,1.75,2.51C636.32,613.42,635.2,614.2,634.02,613.99z"/>
		</g>
		<g id="XMLID_3407_">
			<path id="XMLID_3408_" d="M725.77,614.37c1.17-0.23,1.94-1.37,1.71-2.54c-0.23-1.17-1.37-1.94-2.54-1.71
				c-1.17,0.23-1.94,1.37-1.71,2.54C723.46,613.83,724.6,614.6,725.77,614.37z"/>
		</g>
	</g>
	<g id="XMLID_3400_">
		<path id="XMLID_3405_" d="M885.25,270.32c-15.63-28.53-36.62-53.11-62.41-73.06l0.35-0.46c25.85,20,46.9,44.64,62.56,73.24
			L885.25,270.32z"/>
		<g id="XMLID_3403_">
			<path id="XMLID_3404_" d="M887.29,269.03c0.59,1.04,0.23,2.36-0.8,2.95c-1.04,0.59-2.36,0.23-2.95-0.8
				c-0.59-1.04-0.23-2.36,0.8-2.95C885.37,267.64,886.7,268,887.29,269.03z"/>
		</g>
		<g id="XMLID_3401_">
			<path id="XMLID_3402_" d="M824.43,195.44c-0.93-0.75-2.29-0.6-3.04,0.33c-0.75,0.93-0.6,2.29,0.33,3.04
				c0.93,0.75,2.3,0.6,3.04-0.33C825.51,197.55,825.36,196.19,824.43,195.44z"/>
		</g>
	</g>
	<g id="XMLID_3394_">
		<path id="XMLID_3399_" d="M904.02,457.86l-0.55-0.16c7.35-24.62,11.08-50.27,11.08-76.21c0-7.24-0.29-14.54-0.87-21.71l0.57-0.05
			c0.58,7.18,0.87,14.51,0.87,21.76C915.13,407.49,911.39,433.19,904.02,457.86z"/>
		<g id="XMLID_3397_">
			<path id="XMLID_3398_" d="M905.83,458.26c-0.33,1.15-1.53,1.81-2.68,1.48c-1.15-0.33-1.81-1.53-1.48-2.68
				c0.33-1.15,1.53-1.81,2.68-1.48C905.5,455.92,906.16,457.12,905.83,458.26z"/>
		</g>
		<g id="XMLID_3395_">
			<path id="XMLID_3396_" d="M916.1,359.72c-0.08-1.19-1.11-2.1-2.3-2.02c-1.19,0.08-2.1,1.11-2.02,2.3c0.08,1.19,1.11,2.1,2.3,2.02
				C915.27,361.94,916.18,360.91,916.1,359.72z"/>
		</g>
	</g>
	<g id="XMLID_3388_">
		<path id="XMLID_3393_" d="M544.02,570.01c-19.04-14.55-35.69-31.83-49.49-51.36l0.47-0.33c13.76,19.48,30.37,36.72,49.37,51.23
			L544.02,570.01z"/>
		<g id="XMLID_3391_">
			<path id="XMLID_3392_" d="M493.1,519.83c-0.7-0.97-0.48-2.32,0.48-3.02c0.97-0.7,2.32-0.48,3.02,0.48
				c0.7,0.97,0.48,2.32-0.48,3.02C495.15,521.01,493.8,520.79,493.1,519.83z"/>
		</g>
		<g id="XMLID_3389_">
			<path id="XMLID_3390_" d="M542.79,571.39c0.94,0.74,2.3,0.57,3.04-0.37c0.74-0.94,0.57-2.3-0.37-3.04
				c-0.94-0.74-2.3-0.57-3.04,0.37C541.68,569.3,541.85,570.66,542.79,571.39z"/>
		</g>
	</g>
	<g id="XMLID_3382_">
		<path id="XMLID_3387_" d="M862.25,534.12c-15.71,18.1-33.99,33.64-54.35,46.19l-0.3-0.49c20.3-12.52,38.54-28.02,54.21-46.08
			L862.25,534.12z"/>
		<g id="XMLID_3385_">
			<path id="XMLID_3386_" d="M808.98,581.81c-1.01,0.64-2.35,0.34-2.99-0.67c-0.64-1.01-0.34-2.35,0.67-2.99
				c1.01-0.64,2.35-0.34,2.99,0.67C810.29,579.83,809.99,581.17,808.98,581.81z"/>
		</g>
		<g id="XMLID_3383_">
			<path id="XMLID_3384_" d="M863.55,535.43c0.79-0.89,0.71-2.26-0.18-3.06c-0.89-0.79-2.26-0.71-3.06,0.18
				c-0.79,0.89-0.71,2.26,0.18,3.06C861.39,536.4,862.76,536.32,863.55,535.43z"/>
		</g>
	</g>
	<g id="XMLID_3376_">
		<path id="XMLID_3381_" d="M451.73,413.25c-0.98-8.73-1.47-17.63-1.47-26.45c0-20.1,2.55-40.06,7.57-59.34l0.56,0.14
			c-5,19.22-7.54,39.14-7.55,59.19c0,8.81,0.49,17.69,1.46,26.39L451.73,413.25z"/>
		<g id="XMLID_3379_">
			<path id="XMLID_3380_" d="M456.04,327.16c0.27-1.16,1.44-1.89,2.6-1.61c1.16,0.27,1.89,1.44,1.61,2.6
				c-0.27,1.16-1.44,1.89-2.6,1.61C456.49,329.48,455.76,328.32,456.04,327.16z"/>
		</g>
		<g id="XMLID_3377_">
			<path id="XMLID_3378_" d="M449.91,413.3c0.11,1.19,1.16,2.07,2.35,1.96c1.19-0.11,2.07-1.16,1.96-2.35
				c-0.11-1.19-1.16-2.07-2.35-1.96C450.68,411.05,449.8,412.11,449.91,413.3z"/>
		</g>
	</g>
</g>
<path id="XMLID_00000127765953851671974600000009161301110570329535_" class="st0" d="M896.41,136.09
	c-4.81,4.31-4.84,10.04-0.06,14.41c0.85,0.77,1.82,1.49,2.81,2.12c9.44-5.72,25.17-5.68,34.52,0.17c1.01-0.61,2.03-1.3,2.9-2.07
	c4.77-4.31,4.83-10.04,0.05-14.37C927.2,127.67,905.95,127.56,896.41,136.09z"/>
<path id="XMLID_00000145758371510643983010000003086929315162410930_" class="st1" d="M963.19,137.5c-1.03-2.7-2.79-5.28-5.18-7.7
	c-0.31-0.29-0.57-0.58-0.9-0.83l15.79-9.04l-15.05-8.82l-15.78,9.02c-4.6-1.71-9.55-2.91-14.73-3.61l0.09-12.85l-21.47-0.11
	l-0.08,12.84c-5.13,0.65-10.09,1.82-14.69,3.4l-15.72-9.13l-15.2,8.68l15.67,9.15c-0.3,0.26-0.58,0.59-0.81,0.84
	c-2.45,2.42-4.23,5-5.36,7.62l-7.9-0.05l-14.35-0.08l-0.03,12.41l22.27,0.1c0.39,1.02,0.97,2.07,1.57,3.08
	c1.15,1.87,2.62,3.68,4.47,5.44l-15.81,9.01l1.71,0.97l13.15,7.72l0.28,0.12l15.76-9c1.42,0.54,2.93,0.97,4.41,1.42
	c3.29,0.94,6.78,1.68,10.32,2.17l-0.05,3.76l-0.06,9.08l21.49,0.12v-9.08l0.06-3.75c3.57-0.46,6.99-1.14,10.32-2.05
	c1.53-0.45,2.94-0.9,4.41-1.37l15.63,9.15l0.36-0.15l13.2-7.54l1.69-1l-15.71-9.15c1.91-1.72,3.37-3.52,4.5-5.4
	c0.69-1.01,1.22-2.04,1.63-3.07l22.32,0.1l0.06-12.38l-14.3-0.06L963.19,137.5z M936.58,150.71c-0.87,0.77-1.89,1.45-2.9,2.07
	c-9.37,5.72-25.19,5.63-34.52-0.17c-0.99-0.63-1.96-1.35-2.81-2.12c-4.79-4.37-4.75-10.1,0.06-14.41
	c9.54-8.53,30.79-8.41,40.22,0.26C941.41,140.67,941.35,146.4,936.58,150.71z"/>
<polygon id="XMLID_00000078740774444423418980000006760987397271637896_" class="st0" points="859.91,185.45 875.04,194.27 
	875.15,175.69 860.01,166.88 "/>
<polygon id="XMLID_00000066516159687368561530000013825462257015134390_" class="st0" points="875.04,194.27 890.83,185.25 
	890.91,166.7 875.15,175.69 "/>
<polygon id="XMLID_00000173852110291532891260000016955165097652958644_" class="st0" points="905.44,201.71 926.88,201.83 
	927.02,183.25 905.53,183.13 "/>
<path id="XMLID_00000123401562550948778590000018118171124410228652_" class="st0" d="M890.83,185.25c7.49,2.78,14.7,3.61,14.7,3.61
	l0.11-18.56c0,0-10.29-1.7-14.73-3.6L890.83,185.25z"/>
<polygon id="XMLID_00000026162516912145414960000011747203812771405207_" class="st0" points="847.4,167.78 860.01,167.85 
	860.01,166.88 869.7,161.34 869.77,149.34 847.51,149.24 "/>
<path id="XMLID_00000160177008200288656190000013439527635758560157_" class="st0" d="M869.7,161.34l6.11-3.47
	c-4.16-3.61-6.04-8.52-6.04-8.52L869.7,161.34z"/>
<polygon id="XMLID_00000059305642040977769720000011917755720755799953_" class="st0" points="941.71,185.52 957.41,194.71 
	957.43,176.15 941.81,167 "/>
<polygon id="XMLID_00000176041286023196099250000010049120135926843286_" class="st0" points="957.41,194.71 972.66,186.05 
	972.68,167.46 957.43,176.15 "/>
<path id="XMLID_00000000944121308442486030000014968929372331527857_" class="st0" d="M927.07,170.41c0,0-0.06,17.45-0.13,18.56
	c7.61-0.75,14.76-3.45,14.76-3.45s0.18-19.8,0.1-18.52C935.53,169.31,927.07,170.41,927.07,170.41z"/>
<polygon id="XMLID_00000026854615198635622600000003349827578806074037_" class="st0" points="963.05,161.83 972.68,167.46 
	972.68,168.47 985.29,168.48 985.42,149.95 963.09,149.85 "/>
<path id="XMLID_00000173131954708748620870000006742914437941410976_" class="st0" d="M956.97,158.32l6.08,3.51l0.04-11.98
	C960.72,155.08,956.97,158.32,956.97,158.32z"/>
<path id="XMLID_00000159439455995722878790000012915738785709607300_" class="st0" d="M963.19,137.5l9.65,0.07l0.06-17.65
	l-15.79,9.04C961.68,133.22,963.19,137.5,963.19,137.5z"/>
<path id="XMLID_00000009553976817636319630000001292475869100789905_" class="st0" d="M860.17,136.91l9.62,0.05
	c0,0,1.56-4.11,6.17-8.46l-15.67-9.15L860.17,136.91z"/>
<path id="XMLID_00000179629792048810522710000003769176403874219914_" class="st0" d="M925.97,228.06c-2.79,2.5-2.81,5.83-0.03,8.36
	c0.49,0.45,1.05,0.87,1.63,1.23c5.48-3.33,14.61-3.3,20.04,0.09c0.58-0.35,1.17-0.75,1.68-1.2c2.77-2.51,2.81-5.83,0.03-8.34
	C943.84,223.17,931.5,223.11,925.97,228.06z"/>
<path id="XMLID_00000054225210390901776120000000475980152996077206_" class="st1" d="M964.73,228.88c-0.6-1.56-1.62-3.06-3.01-4.47
	c-0.19-0.17-0.33-0.34-0.52-0.49l9.17-5.25l-8.73-5.12l-9.16,5.24c-2.67-0.99-5.55-1.68-8.55-2.09l0.06-7.46l-12.46-0.06l-0.04,7.45
	c-2.98,0.38-5.86,1.05-8.53,1.98l-9.12-5.3l-8.82,5.04l9.1,5.31c-0.17,0.15-0.34,0.34-0.47,0.49c-1.42,1.39-2.45,2.89-3.11,4.42
	l-4.59-0.03l-8.33-0.05l-0.02,7.2l12.93,0.06c0.23,0.59,0.56,1.2,0.91,1.79c0.67,1.08,1.52,2.14,2.59,3.16l-9.18,5.23l0.99,0.57
	l7.63,4.47l0.16,0.08l9.15-5.23c0.83,0.31,1.7,0.57,2.56,0.83c1.91,0.54,3.93,0.97,5.99,1.26l-0.03,2.18l-0.04,5.28l12.47,0.07
	v-5.28l0.03-2.18c2.07-0.27,4.05-0.66,5.99-1.19c0.89-0.26,1.71-0.53,2.56-0.79l9.07,5.31l0.21-0.09l7.66-4.38l0.98-0.58l-9.12-5.31
	c1.11-1,1.96-2.04,2.61-3.13c0.4-0.59,0.71-1.19,0.94-1.79l12.96,0.06l0.04-7.18l-8.3-0.04L964.73,228.88z M949.28,236.55
	c-0.51,0.45-1.1,0.84-1.68,1.2c-5.44,3.32-14.63,3.27-20.04-0.09c-0.57-0.37-1.14-0.79-1.63-1.23c-2.78-2.53-2.76-5.86,0.03-8.36
	c5.53-4.95,17.87-4.88,23.34,0.15C952.09,230.71,952.05,234.04,949.28,236.55z"/>
<polygon id="XMLID_00000160190168391306190770000017192417765928761785_" class="st0" points="904.78,256.71 913.56,261.84 
	913.62,251.05 904.83,245.93 "/>
<polygon id="XMLID_00000163040654051601002840000004703889862950219419_" class="st0" points="913.56,261.84 922.73,256.59 
	922.77,245.83 913.62,251.05 "/>
<path id="XMLID_00000122712414641051595630000014767979293267356577_" class="st0" d="M922.73,256.59c4.34,1.61,8.53,2.09,8.53,2.09
	l0.07-10.77c0,0-5.97-0.98-8.55-2.09L922.73,256.59z"/>
<polygon id="XMLID_00000131338565696283600860000010252453719169034407_" class="st0" points="897.51,246.46 904.83,246.5 
	904.83,245.93 910.46,242.71 910.5,235.75 897.58,235.69 "/>
<path id="XMLID_00000011012997796017238280000017580791106598378429_" class="st0" d="M910.46,242.71l3.55-2.01
	c-2.41-2.1-3.51-4.95-3.51-4.95L910.46,242.71z"/>
<polygon id="XMLID_00000153701824297293404460000008436833413106308514_" class="st0" points="952.26,256.76 961.38,262.09 
	961.39,251.31 952.32,246 "/>
<polygon id="XMLID_00000181048803293103892740000006244162251848522639_" class="st0" points="961.38,262.09 970.23,257.06 
	970.24,246.27 961.39,251.31 "/>
<path id="XMLID_00000121986926432125759680000011705907011969559487_" class="st0" d="M943.77,247.98c0,0-0.03,10.13-0.07,10.77
	c4.42-0.43,8.57-2,8.57-2s0.11-11.49,0.06-10.75C948.67,247.34,943.77,247.98,943.77,247.98z"/>
<polygon id="XMLID_00000180331211012081248150000006701064924724765355_" class="st0" points="964.65,243 970.24,246.27 
	970.24,246.86 977.56,246.86 977.63,236.11 964.67,236.04 "/>
<path id="XMLID_00000001648831221295238530000001202610983243461506_" class="st0" d="M961.12,240.96l3.53,2.04l0.02-6.95
	C963.29,239.08,961.12,240.96,961.12,240.96z"/>
<path id="XMLID_00000107566563609398187880000013946963474490298807_" class="st0" d="M964.73,228.88l5.6,0.05l0.04-10.25
	l-9.17,5.25C963.85,226.4,964.73,228.88,964.73,228.88z"/>
<path id="XMLID_00000057133136934231575540000002675316148354741892_" class="st0" d="M904.93,228.54l5.58,0.03
	c0,0,0.9-2.38,3.58-4.91l-9.1-5.31L904.93,228.54z"/>
<path id="XMLID_00000055703747652676413480000010770954144814362783_" class="st0" d="M1007.99,197.04
	c-1.89,1.69-1.9,3.95-0.02,5.66c0.33,0.3,0.71,0.59,1.1,0.84c3.71-2.25,9.89-2.23,13.57,0.07c0.39-0.24,0.8-0.51,1.14-0.82
	c1.87-1.7,1.9-3.95,0.02-5.65C1020.1,193.74,1011.74,193.69,1007.99,197.04z"/>
<path id="XMLID_00000117673933843493994660000013818195893867713198_" class="st1" d="M1034.24,197.6c-0.4-1.07-1.09-2.08-2.04-3.03
	c-0.13-0.11-0.22-0.23-0.35-0.33l6.21-3.55l-5.92-3.47l-6.2,3.55c-1.8-0.67-3.75-1.14-5.79-1.42l0.04-5.05l-8.44-0.04l-0.03,5.05
	c-2.02,0.26-3.97,0.72-5.78,1.34l-6.18-3.59l-5.97,3.41l6.16,3.6c-0.11,0.1-0.23,0.24-0.32,0.33c-0.97,0.95-1.66,1.97-2.1,3
	l-3.11-0.02l-5.64-0.03l-0.01,4.88l8.75,0.04c0.16,0.4,0.38,0.82,0.62,1.21c0.46,0.73,1.03,1.45,1.76,2.14l-6.21,3.55l0.67,0.39
	l5.17,3.03l0.11,0.05l6.2-3.53c0.55,0.21,1.15,0.38,1.73,0.55c1.29,0.37,2.66,0.67,4.05,0.86l-0.02,1.48l-0.02,3.57l8.45,0.05v-3.57
	l0.02-1.48c1.4-0.18,2.74-0.45,4.06-0.8c0.6-0.18,1.16-0.36,1.73-0.54l6.14,3.6l0.14-0.06l5.18-2.96l0.67-0.4l-6.18-3.59
	c0.75-0.68,1.33-1.38,1.77-2.12c0.27-0.4,0.48-0.8,0.64-1.21l8.78,0.05l0.02-4.87l-5.62-0.03H1034.24z M1023.78,202.79
	c-0.34,0.31-0.74,0.57-1.14,0.82c-3.69,2.25-9.9,2.21-13.57-0.07c-0.39-0.25-0.77-0.54-1.1-0.84c-1.88-1.71-1.87-3.97,0.02-5.66
	c3.75-3.35,12.1-3.3,15.8,0.1C1025.68,198.84,1025.66,201.09,1023.78,202.79z"/>
<polygon id="XMLID_00000117665824403889235460000002784238689004395140_" class="st0" points="993.65,216.45 999.6,219.91 
	999.64,212.61 993.69,209.15 "/>
<polygon id="XMLID_00000179627478422462108960000011025419086203906489_" class="st0" points="999.6,219.91 1005.8,216.36 
	1005.84,209.08 999.64,212.61 "/>
<polygon id="XMLID_00000134950927481486803340000008482670816154342549_" class="st0" points="1011.55,222.83 1019.97,222.88 
	1020.02,215.58 1011.58,215.53 "/>
<path id="XMLID_00000109725794777749204860000010867347829468448422_" class="st0" d="M1005.8,216.36c2.94,1.09,5.77,1.42,5.77,1.42
	l0.05-7.29c0,0-4.04-0.66-5.79-1.41L1005.8,216.36z"/>
<polygon id="XMLID_00000094615279933752452700000015247094299818681784_" class="st0" points="988.73,209.5 993.69,209.53 
	993.69,209.15 997.5,206.97 997.53,202.25 988.78,202.22 "/>
<path id="XMLID_00000023255158156853944590000003182728726260520631_" class="st0" d="M997.5,206.97l2.41-1.37
	c-1.63-1.42-2.37-3.35-2.37-3.35L997.5,206.97z"/>
<polygon id="XMLID_00000057847080685973946100000018176066497004473987_" class="st0" points="1025.8,216.47 1031.97,220.08 
	1031.98,212.79 1025.84,209.2 "/>
<polygon id="XMLID_00000090258373209174212590000011068039835731175342_" class="st0" points="1031.97,220.08 1037.96,216.68 
	1037.97,209.37 1031.98,212.79 "/>
<path id="XMLID_00000178921947127418685010000018091016411114264467_" class="st0" d="M1020.05,210.54c0,0-0.02,6.86-0.05,7.29
	c2.99-0.3,5.8-1.35,5.8-1.35s0.08-7.78,0.04-7.28C1023.37,210.1,1020.05,210.54,1020.05,210.54z"/>
<polygon id="XMLID_00000064347622992650881270000008883189114451905453_" class="st0" points="1034.19,207.17 1037.97,209.37 
	1037.97,209.77 1042.92,209.77 1042.98,202.5 1034.2,202.45 "/>
<path id="XMLID_00000077326082315536347340000012774321166724063655_" class="st0" d="M1031.8,205.79l2.39,1.38l0.01-4.72
	C1033.27,204.51,1031.8,205.79,1031.8,205.79z"/>
<path id="XMLID_00000070838344434259544710000018327895840520854915_" class="st0" d="M1034.24,197.6l3.79,0.03l0.03-6.94
	l-6.21,3.55C1033.64,195.92,1034.24,197.6,1034.24,197.6z"/>
<path id="XMLID_00000096756079696075997990000000852116377845805206_" class="st0" d="M993.75,197.37l3.79,0.02
	c0,0,0.61-1.62,2.42-3.33l-6.16-3.6L993.75,197.37z"/>
<g>
	<polygon id="XMLID_00000020359698966068170530000005100234164122589618_" class="st2" points="417.1,226.6 420.69,232.86 
		431.06,226.89 427.47,220.62 	"/>
	<polygon id="XMLID_00000050657100914044806370000018163962063649958038_" class="st3" points="402.96,234.76 417.82,260.32 
		411.8,238 420.69,232.86 417.1,226.6 	"/>
	<polygon id="XMLID_00000013915934876916814810000013658765500313550758_" class="st4" points="412.9,222.43 415.75,227.37 
		423.39,222.99 420.54,218.04 	"/>
	<polygon id="XMLID_00000008117336471289894580000011916056606895492792_" class="st5" points="403.42,227.91 406.28,232.86 
		415.75,227.37 412.9,222.43 	"/>
	<polygon id="XMLID_00000181791326980545226160000016464270661606299522_" class="st2" points="400.62,236.1 404.21,242.36 
		414.58,236.38 410.99,230.12 	"/>
	<polygon id="XMLID_00000147199881019097329940000010751441146023870110_" class="st3" points="386.48,244.26 401.34,269.82 
		395.32,247.49 404.21,242.36 400.62,236.1 	"/>
	<polygon id="XMLID_00000062194355751370978470000011920171337043425671_" class="st4" points="396.41,231.92 399.27,236.87 
		406.91,232.49 404.05,227.54 	"/>
	<polygon id="XMLID_00000165236318712672881730000003140122217674296767_" class="st5" points="386.94,237.41 389.8,242.36 
		399.27,236.87 396.41,231.92 	"/>
	<path id="XMLID_00000173883884787182548060000013728377033169972380_" class="st6" d="M438.75,268.12l22.79,13.16
		c1.84,1.06,3.42,0.43,3.75-1.5l4.65-26.91c0.43-2.5-1.37-6.09-3.75-7.46l-32.09-18.53c-2.39-1.38-4.19,0.12-3.75,3.13l4.65,32.28
		C435.33,264.61,436.91,267.06,438.75,268.12z"/>
	<path id="XMLID_00000080899618428579391370000007564103971934417066_" class="st7" d="M431.47,226.59l-51.9,29.97l0.39,1.61
		l54.14-31.29C434.1,226.88,432.73,225.94,431.47,226.59z"/>
	<polygon id="XMLID_00000078011252692495079300000006724306438519350923_" class="st2" points="384.87,245.16 388.46,251.42 
		398.83,245.45 395.24,239.18 	"/>
	<polygon id="XMLID_00000165193156533105644160000015556240801773313723_" class="st3" points="370.73,253.32 385.59,278.88 
		379.57,256.56 388.46,251.42 384.87,245.16 	"/>
	<polygon id="XMLID_00000023959469304844548220000001045014425668546210_" class="st4" points="380.66,240.99 383.52,245.93 
		391.16,241.55 388.3,236.6 	"/>
	<polygon id="XMLID_00000111886741948469978140000005837472070528907434_" class="st5" points="371.19,246.47 374.04,251.42 
		383.52,245.93 380.66,240.99 	"/>
	<path id="XMLID_00000170960500639013376550000009750736391908311192_" class="st8" d="M389.45,307.23l17.78,10.27
		c1.13,0.65,2.04,0.12,2.04-1.18v-10.1l-21.86-12.62v10.1C387.42,305,388.33,306.58,389.45,307.23z"/>
	<path id="XMLID_00000121279138896310448920000004736667713858757547_" d="M408.63,308.27l44.3-23.6v6.45
		c0,0.68-0.25,1.14-0.64,1.34l-43.66,25.32V308.27z"/>
	<polygon id="XMLID_00000080165296406904390770000008831694956860468613_" class="st9" points="466.19,245.41 414.39,275.31 
		382.3,256.78 434.1,226.88 	"/>
	<path id="XMLID_00000073710985840444467780000002555217361190197906_" class="st10" d="M464.21,281.55l-51.8,29.9l1.08-1.76
		l51.8-29.91C465.29,279.78,465.09,281.08,464.21,281.55z"/>
	<path id="XMLID_00000165201296437747030220000004403395588916938930_" class="st7" d="M414.39,275.31l51.8-29.91
		c4.56,2.99,3.75,7.46,3.75,7.46l-51.8,29.91L414.39,275.31z"/>
	<path id="XMLID_00000039125188153213167180000016871523860613066170_" class="st11" d="M386.95,298.03l22.79,13.16
		c1.84,1.06,3.42,0.43,3.75-1.5l4.65-26.91c0.43-2.51-1.37-6.09-3.75-7.46l-32.09-18.53c-2.39-1.38-4.19,0.12-3.75,3.13l4.65,32.28
		C383.53,294.51,385.11,296.97,386.95,298.03z"/>
	<path id="XMLID_00000140708147717106768970000003996405175433363897_" class="st12" d="M380.81,261.68c0,2.14,1.5,4.75,3.36,5.82
		c1.86,1.07,3.36,0.2,3.36-1.94c0-2.14-1.5-4.75-3.36-5.82C382.32,258.66,380.81,259.53,380.81,261.68z"/>
	<path id="XMLID_00000033331170422206987220000016307868147275754412_" class="st12" d="M385.08,292.25c0,1.4,0.98,3.11,2.2,3.81
		c1.21,0.7,2.2,0.13,2.2-1.27c0-1.4-0.98-3.11-2.2-3.81C386.06,290.28,385.08,290.85,385.08,292.25z"/>
	<path id="XMLID_00000111871723951158279000000013888695407935569328_" class="st12" d="M407.08,304.95c0,1.4,0.98,3.11,2.2,3.81
		c1.21,0.7,2.2,0.13,2.2-1.27c0-1.4-0.98-3.11-2.2-3.81C408.06,302.98,407.08,303.55,407.08,304.95z"/>
	<path id="XMLID_00000104670930142393219900000002740882367178687107_" class="st12" d="M409.28,278.11c0,2.14,1.5,4.75,3.36,5.82
		c1.86,1.07,3.36,0.2,3.36-1.94c0-2.14-1.5-4.75-3.36-5.82C410.78,275.1,409.28,275.97,409.28,278.11z"/>
	<path id="XMLID_00000109025346652151917940000014522821301640928641_" class="st13" d="M440.71,225.1L440.71,225.1L440.71,225.1
		L440.71,225.1c0.71-0.41,1.7-0.35,2.78,0.28l13.29,7.67c2.17,1.26,3.94,4.31,3.94,6.82v2.39l-51.79,29.9l-20.05-17.13L440.71,225.1
		z"/>
	<path id="XMLID_00000122709053721342189290000002956606295782508215_" class="st14" d="M404.99,262.95l-13.29-7.67
		c-2.17-1.26-3.94-0.24-3.94,2.27v2.39l21.16,12.22v-2.39C408.92,267.26,407.16,264.2,404.99,262.95z"/>
	<path id="XMLID_00000072262531685335476600000009085035779208239787_" d="M396.09,281.72c0,1.43,1.01,3.18,2.25,3.9
		c1.24,0.72,2.25,0.14,2.25-1.3c0-1.43-1.01-3.18-2.25-3.9C397.1,279.71,396.09,280.29,396.09,281.72z"/>
	<g id="XMLID_00000009559533819196943870000014285898583060209062_">
		<path id="XMLID_00000008127181904626256670000016603802378722188188_" class="st15" d="M398.91,279.24l2.25-1.3l1.8-8.37
			c0-1.89-1.32-4.18-2.96-5.12l-6.28-3.62l-2.25,1.3L398.91,279.24z"/>
		<path id="XMLID_00000147922802065159428830000001685891660973818019_" class="st15" d="M392.33,277.05l3.88-2.24l-4.49-10.72
			c-1.16-2-3.03-3.08-4.18-2.42l-4.44,2.56L392.33,277.05z"/>
		<path id="XMLID_00000131357287513492827390000007119777015622570166_" class="st15" d="M380.11,270.81l2.18-1.26c0,0,0,0,0,0l0,0
			v0c0.53-0.31,1.27-0.26,2.09,0.21l8.15,6.79l0,6.33L380.11,270.81z"/>
		<polygon id="XMLID_00000088848577575787991300000000054870834950246294_" class="st15" points="383.02,284.55 385.26,283.25 
			392.3,282.13 396.18,288.85 389.7,295.77 387.46,297.06 		"/>
		<path id="XMLID_00000077304317825736991390000010458453183425867707_" class="st15" d="M401.12,291.46l-5.48-3.17l-1.8,8.37
			c0,1.89,1.32,4.18,2.96,5.12l4.03,4.92l2.25-1.3L401.12,291.46z"/>
		<path id="XMLID_00000133516518800998587410000013479927928523936144_" class="st15" d="M404.47,289.18l-3.88,2.24l4.49,10.72
			c1.16,2,3.03,3.08,4.18,2.42l4.44-2.56L404.47,289.18z"/>
		<path id="XMLID_00000059281076006722019490000003098354598702155140_" class="st15" d="M403.67,285.27l2.38-1.25l9.33,3.5l0,7.25
			c0,0.9-0.3,1.54-0.8,1.87l0,0l-2.53,1.44l-0.3-2.47l0,0L403.67,285.27z"/>
		<path id="XMLID_00000169540222278780607520000003406771392011227539_" class="st15" d="M404.85,271.76l4.44,12.52l2.25-1.3
			c1.16-0.67,1.16-2.83,0-4.83l-4.44-7.69L404.85,271.76z"/>
		<path id="XMLID_00000151543710685609797120000011319628261121874577_" class="st16" d="M393.43,276.07l5.48,3.17l1.8-8.37
			c0-1.89-1.32-4.18-2.96-5.12l-6.28-3.62L393.43,276.07z"/>
		<path id="XMLID_00000026135016948060360940000012171456388354352783_" class="st16" d="M390.72,278.15l3.88-2.24l-4.49-10.72
			c-1.16-2-3.03-3.08-4.18-2.42l-4.44,2.56L390.72,278.15z"/>
		<path id="XMLID_00000122683508280583798350000006086093602406538915_" class="st16" d="M390.29,284.18l0-6.33l-8.15-6.79
			c-1.63-0.94-2.96-0.18-2.96,1.71l0,7.25L390.29,284.18z"/>
		<path id="XMLID_00000042702897377325006120000008512285613671142786_" class="st16" d="M393.93,290.14l-3.88-6.72l-7.04,1.12
			c-1.16,0.67-1.16,2.83,0,4.83l4.44,7.69L393.93,290.14z"/>
		<path id="XMLID_00000006688278479465206280000014268490880689914790_" class="st16" d="M398.88,292.76l-5.48-3.17l-1.8,8.37
			c0,1.89,1.32,4.18,2.96,5.12l6.28,3.62L398.88,292.76z"/>
		<path id="XMLID_00000063607415319111414330000005347316985820596136_" class="st16" d="M402.23,290.48l-3.88,2.24l4.49,10.72
			c1.16,2,3.03,3.08,4.18,2.42l4.44-2.56L402.23,290.48z"/>
		<path id="XMLID_00000026870115560613185650000004540797906532242854_" class="st16" d="M402.02,284.65l0,6.33l8.15,6.79
			c1.63,0.94,2.96,0.18,2.96-1.71l0-7.25L402.02,284.65z"/>
		<path id="XMLID_00000004524228065284250050000017460864508910391689_" class="st16" d="M398.37,278.68l3.88,6.72l7.04-1.12
			c1.16-0.67,1.16-2.83,0-4.83l-4.44-7.69L398.37,278.68z"/>
		<path id="XMLID_00000028321110007883452860000009234706911170298002_" class="st17" d="M387.97,279.65
			c0,5.19,3.64,11.49,8.13,14.09c4.49,2.59,8.13,0.49,8.13-4.7c0-5.19-3.64-11.49-8.13-14.09
			C391.61,272.36,387.97,274.46,387.97,279.65z"/>
		<path id="XMLID_00000037688458787932740080000006124835412835951744_" class="st18" d="M389.37,280.46
			c0,4.29,3.01,9.51,6.73,11.65c2.37,1.37,4.45,1.16,5.65-0.29c-1.23,0.85-3,0.8-4.97-0.34c-3.72-2.14-6.73-7.36-6.73-11.65
			c0-1.56,0.4-2.78,1.08-3.61C390.04,276.98,389.37,278.44,389.37,280.46z"/>
		<path id="XMLID_00000011751190388746466640000008994445446543303305_" class="st9" d="M390.05,279.84c0,4.29,3.01,9.51,6.73,11.65
			c1.97,1.14,3.74,1.18,4.97,0.34c0.68-0.82,1.08-2.04,1.08-3.6c0-4.29-3.01-9.51-6.73-11.65c-1.97-1.13-3.74-1.18-4.96-0.34
			C390.45,277.05,390.05,278.28,390.05,279.84z"/>
		<g id="XMLID_00000145749392777158162720000011840312918485848974_">
			<path id="XMLID_00000172418938203903777840000015251380384804492171_" d="M393.93,283.74l-0.76-1.4l1.34-0.77v0
				c0.41-0.24,0.97-0.2,1.59,0.16c1.24,0.72,2.25,2.46,2.25,3.9c0,0.64-0.2,1.12-0.54,1.38l0,0l-0.02,0.01
				c-0.07,0.05-1.59,0.92-1.59,0.92l-0.87-1.61C394.65,285.63,394.12,284.67,393.93,283.74z"/>
			<path id="XMLID_00000068667514264186255960000013760846014857740222_" class="st18" d="M392.46,283.82c0,1.43,1.01,3.18,2.25,3.9
				c1.24,0.72,2.25,0.14,2.25-1.3c0-1.43-1.01-3.18-2.25-3.9C393.46,281.81,392.46,282.39,392.46,283.82z"/>
		</g>
	</g>
	<polygon id="XMLID_00000006708980980402538110000006525735901417891461_" points="465.29,279.78 413.5,309.69 418.15,282.78 
		469.95,252.87 	"/>
	<polygon id="XMLID_00000056421301752388922000000010855827941330673593_" class="st2" points="474.75,277.97 485.18,272.01 
		468.92,243.84 458.49,249.8 	"/>
	<polygon id="XMLID_00000039815298937837662710000009723338117240924567_" class="st3" points="458.49,249.8 453.7,252.62 
		457.52,260.13 453.69,286.57 474.75,277.97 	"/>
	<polygon id="XMLID_00000066512262674728231510000017239303423162596488_" class="st2" points="458.89,287.12 469.32,281.16 
		453.06,252.99 442.63,258.95 	"/>
	<polygon id="XMLID_00000100378107217484984720000013264343932967974071_" class="st3" points="442.63,258.95 437.84,261.78 
		441.66,269.28 437.83,295.72 458.89,287.12 	"/>
	<polygon id="XMLID_00000172411728627020873750000012294305648375231405_" class="st2" points="443.1,296.16 453.53,290.2 
		437.26,262.03 426.83,267.99 	"/>
	<polygon id="XMLID_00000152948791500927846270000008806355957227075250_" class="st3" points="426.83,267.99 422.04,270.81 
		425.87,278.32 422.03,304.76 443.1,296.16 	"/>
	<polygon id="XMLID_00000016045731086337402810000012693842031337446331_" class="st19" points="435.36,272.55 431.85,274.6 
		439.67,288.14 443.19,286.09 	"/>
	
		<rect id="XMLID_00000106139910006396979290000001410453640956764299_" x="438.66" y="269.22" transform="matrix(0.866 -0.5001 0.5001 0.866 -79.1404 258.7661)" class="st20" width="9.12" height="15.64"/>
	<polygon id="XMLID_00000009586282958596503570000017205402669185272453_" class="st19" points="451.23,263.36 447.72,265.41 
		455.54,278.96 459.06,276.91 	"/>
	
		<rect id="XMLID_00000129906964995424425660000006834544197537596351_" x="454.53" y="260.03" transform="matrix(0.866 -0.5001 0.5001 0.866 -72.4219 265.468)" class="st20" width="9.12" height="15.64"/>
	<polygon id="XMLID_00000048459739988857051490000015134871345603375265_" class="st19" points="467.16,254.17 463.65,256.22 
		471.47,269.76 474.99,267.71 	"/>
	
		<rect id="XMLID_00000006689214790190892540000005507350683353566866_" x="470.46" y="250.84" transform="matrix(0.866 -0.5001 0.5001 0.866 -65.6879 272.2041)" class="st20" width="9.12" height="15.64"/>
	<g id="XMLID_00000167396667718572380950000000019341654240467879_">
		<path id="XMLID_00000085239880465395348720000000416873974103322811_" class="st21" d="M437.25,226.19l-6.91-3.96
			c-0.9-0.52-1.89-0.5-2.71-0.11l6.38-3.7l0,0c0.86-0.52,1.98-0.61,2.98-0.04l6.91,3.96v6.98l-5.28-3.03l-1.36,0.79V226.19z"/>
		<path id="XMLID_00000031902369560119002280000008703546828255139752_" class="st22" d="M437.25,226.19v6.98l-5.28-3.03l-4.73,2.73
			l-1.28-0.74v-7.38c0-2.25,2.44-3.66,4.38-2.53L437.25,226.19z"/>
		<polygon id="XMLID_00000149358986961010384880000000702855465256146316_" class="st23" points="437.25,233.18 443.89,229.34 
			443.89,222.35 437.25,226.19 		"/>
	</g>
	<g id="XMLID_00000166650932275616256610000013229491342580620735_">
		<path id="XMLID_00000023265966719119271830000014908375775662284929_" class="st21" d="M427.66,231.73l-6.91-3.96
			c-0.9-0.52-1.89-0.5-2.71-0.11l6.38-3.7l0,0c0.86-0.52,1.98-0.61,2.98-0.04l6.91,3.96v6.98l-5.28-3.03l-1.36,0.79V231.73z"/>
		<path id="XMLID_00000029021333535829446050000007556855053664537237_" class="st22" d="M427.66,231.73v6.98l-5.28-3.03l-4.73,2.73
			l-1.28-0.74v-7.38c0-2.25,2.44-3.66,4.38-2.53L427.66,231.73z"/>
		<polygon id="XMLID_00000139295993709025423880000000394984992038381502_" class="st23" points="427.66,238.71 434.3,234.87 
			434.3,227.89 427.66,231.73 		"/>
	</g>
	<g id="XMLID_00000160184715372809925080000008379552345287813781_">
		<path id="XMLID_00000103259381738284606350000000689852985562840707_" class="st21" d="M418.55,236.98l-6.91-3.96
			c-0.9-0.52-1.89-0.5-2.71-0.11l6.38-3.7l0,0c0.86-0.52,1.98-0.61,2.98-0.04l6.91,3.96v6.98l-5.28-3.03l-1.36,0.79V236.98z"/>
		<path id="XMLID_00000144321345478722889980000010632565332155958402_" class="st22" d="M418.55,236.98v6.98l-5.28-3.03l-4.73,2.73
			l-1.28-0.74v-7.38c0-2.25,2.44-3.66,4.38-2.53L418.55,236.98z"/>
		<polygon id="XMLID_00000016037522931393821060000007276188925942604984_" class="st23" points="418.55,243.97 425.2,240.13 
			425.2,233.14 418.55,236.98 		"/>
	</g>
	<g id="XMLID_00000092434849438691801840000000343472043801966495_">
		<path id="XMLID_00000180350583126431249010000012909693666507728048_" class="st21" d="M409.29,242.33l-6.91-3.96
			c-0.9-0.52-1.89-0.5-2.71-0.11l6.38-3.7l0,0c0.86-0.52,1.98-0.61,2.98-0.04l6.91,3.96v6.98l-5.28-3.03l-1.36,0.79V242.33z"/>
		<path id="XMLID_00000033329153783596533860000014420404794291374507_" class="st22" d="M409.29,242.33v6.98l-5.28-3.03l-4.73,2.73
			l-1.28-0.74v-7.38c0-2.25,2.44-3.66,4.38-2.53L409.29,242.33z"/>
		<polygon id="XMLID_00000130615890396948541290000000386101070858693562_" class="st23" points="409.29,249.32 415.94,245.48 
			415.94,238.49 409.29,242.33 		"/>
	</g>
	<g id="XMLID_00000101072182257399388640000003176907081879374501_">
		<path id="XMLID_00000006706402724729622350000009608610158778143913_" class="st21" d="M400.16,247.6l-6.91-3.96
			c-0.9-0.52-1.89-0.5-2.71-0.11l6.38-3.7l0,0c0.86-0.52,1.98-0.61,2.98-0.04l6.91,3.96v6.98l-5.28-3.03l-1.36,0.79V247.6z"/>
		<path id="XMLID_00000095331180281649758930000000180104196162606748_" class="st22" d="M400.16,247.6v6.98l-5.28-3.03l-4.73,2.73
			l-1.28-0.74v-7.38c0-2.25,2.44-3.66,4.38-2.53L400.16,247.6z"/>
		<polygon id="XMLID_00000101790983752376030250000001898672261172294312_" class="st23" points="400.16,254.59 406.81,250.75 
			406.81,243.76 400.16,247.6 		"/>
	</g>
	<g id="XMLID_00000026854902358367942230000001346741984311370641_">
		<path id="XMLID_00000047057767529722788950000002342858708307560836_" class="st14" d="M452.9,227.17v4.74l0,0
			c0,0.87-0.57,1.73-1.72,2.4c-2.29,1.32-6.01,1.32-8.3,0c-1.15-0.66-1.72-1.53-1.72-2.4v-4.74H452.9z"/>
		<path id="XMLID_00000090263536949579354870000018106248280726052496_" class="st16" d="M442.88,229.57c2.29,1.32,6.01,1.32,8.3,0
			c2.29-1.32,2.29-3.47,0-4.79c-2.29-1.32-6.01-1.32-8.3,0C440.59,226.1,440.59,228.24,442.88,229.57z"/>
	</g>
	<g id="XMLID_00000089561853702440941380000002730218449488597684_">
		<path id="XMLID_00000061473187429863060630000014628858083625897344_" class="st14" d="M442.29,233.29v4.74l0,0
			c0,0.87-0.57,1.73-1.72,2.4c-2.29,1.32-6.01,1.32-8.3,0c-1.15-0.66-1.72-1.53-1.72-2.4v-4.74H442.29z"/>
		<path id="XMLID_00000179622137211718676920000010530253793782557855_" class="st16" d="M432.27,235.69c2.29,1.32,6.01,1.32,8.3,0
			c2.29-1.32,2.29-3.47,0-4.79c-2.29-1.32-6.01-1.32-8.3,0C429.98,232.22,429.98,234.37,432.27,235.69z"/>
	</g>
	<g id="XMLID_00000178905775663549232700000000179909323579844254_">
		<path id="XMLID_00000047750581878736048760000001156760891346155660_" class="st14" d="M431.58,239.48v4.74l0,0
			c0,0.87-0.57,1.73-1.72,2.4c-2.29,1.32-6.01,1.32-8.3,0c-1.15-0.66-1.72-1.53-1.72-2.4v-4.74H431.58z"/>
		<path id="XMLID_00000107587965151261838830000003856466576538694289_" class="st16" d="M421.57,241.87c2.29,1.32,6.01,1.32,8.3,0
			c2.29-1.32,2.29-3.47,0-4.79c-2.29-1.32-6.01-1.32-8.3,0C419.27,238.4,419.27,240.55,421.57,241.87z"/>
	</g>
	<g id="XMLID_00000101799656349776969900000013336674540590123152_">
		<path id="XMLID_00000173156101065725387620000000666745914657886602_" class="st14" d="M420.88,245.66v4.74l0,0
			c0,0.87-0.57,1.73-1.72,2.4c-2.29,1.32-6.01,1.32-8.3,0c-1.15-0.66-1.72-1.53-1.72-2.4v-4.74H420.88z"/>
		<path id="XMLID_00000153688834253676658560000005918598613261784449_" class="st16" d="M410.86,248.05c2.29,1.32,6.01,1.32,8.3,0
			c2.29-1.32,2.29-3.47,0-4.79c-2.29-1.32-6.01-1.32-8.3,0C408.57,244.58,408.57,246.73,410.86,248.05z"/>
	</g>
	<g id="XMLID_00000010269129620259659610000015063805391823680395_">
		<path id="XMLID_00000173141970810958572310000018295814178214023810_" class="st14" d="M410.09,251.88v4.74l0,0
			c0,0.87-0.57,1.73-1.72,2.4c-2.29,1.32-6.01,1.32-8.3,0c-1.15-0.66-1.72-1.53-1.72-2.4v-4.74H410.09z"/>
		<path id="XMLID_00000181082398895006320870000006767864047425528466_" class="st16" d="M400.08,254.28c2.29,1.32,6.01,1.32,8.3,0
			c2.29-1.32,2.29-3.47,0-4.79c-2.29-1.32-6.01-1.32-8.3,0C397.78,250.81,397.78,252.96,400.08,254.28z"/>
	</g>
	<g id="XMLID_00000129891619400636107270000003314247006316699566_">
		<path id="XMLID_00000141447258002559107670000004992510540034484120_" class="st21" d="M452.6,227.87l6.56,3.82
			c2.17,1.26,3.94,4.31,3.94,6.82v7.86l-6.64,3.84l-2.46-11.15l-8.03-7.34L452.6,227.87z"/>
		<path id="XMLID_00000147219040978983769070000013672104695369259685_" class="st22" d="M445.95,231.71l6.56,3.82
			c2.17,1.26,3.94,4.31,3.94,6.82v7.86l-4.83-2.71v-2.52c0-1.88-1-3.61-2.63-4.55l-3.02-1.73L445.95,231.71z"/>
	</g>
	<g id="XMLID_00000067195699507773986080000000925212393732816799_">
		<path id="XMLID_00000098901944893188577610000011259106516116107198_" class="st21" d="M443.46,233.15l6.56,3.82
			c2.17,1.26,3.94,4.31,3.94,6.82v7.86l-6.64,3.84l-2.46-11.15l-8.03-7.34L443.46,233.15z"/>
		<path id="XMLID_00000031170939768283669550000016768927543950290838_" class="st22" d="M436.82,236.98l6.56,3.82
			c2.17,1.26,3.94,4.31,3.94,6.82v7.86l-4.83-2.71v-2.52c0-1.88-1-3.61-2.63-4.55l-3.02-1.73L436.82,236.98z"/>
	</g>
	<g id="XMLID_00000044165456755165111380000014995651232129296280_">
		<path id="XMLID_00000003094240124345373500000008330188517465778818_" class="st21" d="M434.34,238.41l6.56,3.82
			c2.17,1.26,3.94,4.31,3.94,6.82v7.86l-6.64,3.84l-2.46-11.15l-8.03-7.34L434.34,238.41z"/>
		<path id="XMLID_00000034069821348960973950000017742980267834803342_" class="st22" d="M427.7,242.24l6.56,3.82
			c2.17,1.26,3.94,4.31,3.94,6.82v7.86l-4.83-2.71v-2.52c0-1.88-1-3.61-2.63-4.55l-3.02-1.73L427.7,242.24z"/>
	</g>
	<g id="XMLID_00000160901605358459861540000016336181668562363317_">
		<path id="XMLID_00000111182129167612601420000009628929387567883959_" class="st21" d="M425.04,243.78l6.56,3.82
			c2.17,1.26,3.94,4.31,3.94,6.82v7.86l-6.64,3.84l-2.46-11.15l-8.03-7.34L425.04,243.78z"/>
		<path id="XMLID_00000115483394668668907120000006308594249416313744_" class="st22" d="M418.4,247.61l6.56,3.82
			c2.17,1.26,3.94,4.31,3.94,6.82v7.86l-4.83-2.71v-2.52c0-1.88-1-3.61-2.63-4.55l-3.02-1.73L418.4,247.61z"/>
	</g>
	<g id="XMLID_00000016792198009338595900000003746321628830750379_">
		<path id="XMLID_00000174603786099021226050000013292005125754027445_" class="st21" d="M415.91,249.05l6.56,3.82
			c2.17,1.26,3.94,4.31,3.94,6.82v7.86l-6.64,3.84l-2.46-11.15l-8.03-7.34L415.91,249.05z"/>
		<path id="XMLID_00000167360862654217470650000010127090766194434456_" class="st22" d="M409.26,252.89l6.56,3.82
			c2.17,1.26,3.94,4.31,3.94,6.82v7.86l-4.83-2.71v-2.52c0-1.88-1-3.61-2.63-4.55l-3.02-1.73L409.26,252.89z"/>
	</g>
</g>
<g>
	<path id="XMLID_13443_" class="st24" d="M372.1,535.79c-4.81,4.31-4.84,10.04-0.06,14.41c0.85,0.77,1.82,1.49,2.81,2.12
		c9.44-5.72,25.17-5.68,34.52,0.17c1.01-0.61,2.03-1.3,2.9-2.07c4.77-4.31,4.83-10.04,0.05-14.37
		C402.89,527.37,381.64,527.26,372.1,535.79z"/>
	<path id="XMLID_13440_" class="st25" d="M438.88,537.2c-1.03-2.7-2.79-5.28-5.18-7.7c-0.31-0.29-0.57-0.58-0.9-0.83l15.79-9.04
		l-15.05-8.82l-15.78,9.02c-4.6-1.71-9.55-2.91-14.73-3.61l0.09-12.85l-21.47-0.11l-0.08,12.84c-5.13,0.65-10.09,1.82-14.69,3.4
		l-15.72-9.13l-15.2,8.68l15.67,9.15c-0.3,0.26-0.58,0.59-0.81,0.84c-2.45,2.41-4.23,5-5.36,7.62l-7.9-0.05l-14.35-0.08l-0.03,12.41
		l22.27,0.1c0.39,1.02,0.97,2.07,1.57,3.08c1.15,1.87,2.62,3.68,4.47,5.44l-15.81,9.01l1.71,0.97l13.15,7.72l0.28,0.12l15.76-9
		c1.42,0.54,2.93,0.97,4.41,1.42c3.29,0.94,6.78,1.68,10.32,2.17l-0.05,3.76l-0.06,9.08l21.49,0.12v-9.08l0.06-3.75
		c3.57-0.46,6.99-1.14,10.32-2.05c1.53-0.45,2.94-0.9,4.41-1.37l15.63,9.15l0.36-0.15l13.2-7.54l1.69-1l-15.71-9.15
		c1.91-1.72,3.37-3.52,4.5-5.4c0.69-1.01,1.22-2.04,1.63-3.07l22.32,0.1l0.06-12.38l-14.3-0.06L438.88,537.2z M412.27,550.41
		c-0.87,0.77-1.89,1.45-2.9,2.07c-9.37,5.72-25.19,5.63-34.52-0.17c-0.99-0.63-1.96-1.35-2.81-2.12c-4.79-4.37-4.75-10.1,0.06-14.41
		c9.54-8.53,30.79-8.41,40.22,0.26C417.11,540.37,417.04,546.1,412.27,550.41z"/>
	<polygon id="XMLID_13439_" class="st26" points="335.61,585.15 350.73,593.97 350.84,575.39 335.7,566.58 	"/>
	<polygon id="XMLID_13438_" class="st24" points="350.73,593.97 366.53,584.95 366.6,566.4 350.84,575.39 	"/>
	<polygon id="XMLID_13437_" class="st26" points="381.14,601.41 402.58,601.53 402.71,582.95 381.22,582.83 	"/>
	<path id="XMLID_13436_" class="st26" d="M366.53,584.95c7.49,2.78,14.7,3.61,14.7,3.61l0.11-18.56c0,0-10.29-1.7-14.73-3.6
		L366.53,584.95z"/>
	<polygon id="XMLID_13435_" class="st24" points="323.09,567.48 335.7,567.55 335.7,566.58 345.4,561.04 345.47,549.04 
		323.2,548.94 	"/>
	<path id="XMLID_13434_" class="st26" d="M345.4,561.04l6.11-3.47c-4.16-3.61-6.04-8.52-6.04-8.52L345.4,561.04z"/>
	<polygon id="XMLID_13433_" class="st26" points="417.4,585.22 433.11,594.41 433.13,575.85 417.5,566.7 	"/>
	<polygon id="XMLID_13432_" class="st24" points="433.11,594.41 448.35,585.75 448.38,567.16 433.13,575.85 	"/>
	<path id="XMLID_13431_" class="st24" d="M402.77,570.11c0,0-0.06,17.45-0.13,18.56c7.61-0.75,14.76-3.45,14.76-3.45
		s0.18-19.8,0.1-18.52C411.22,569.01,402.77,570.11,402.77,570.11z"/>
	<polygon id="XMLID_13430_" class="st26" points="438.74,561.53 448.38,567.16 448.38,568.17 460.99,568.18 461.11,549.65 
		438.79,549.55 	"/>
	<path id="XMLID_13429_" class="st24" d="M432.66,558.02l6.08,3.51l0.04-11.98C436.41,554.78,432.66,558.02,432.66,558.02z"/>
	<path id="XMLID_13428_" class="st24" d="M438.88,537.2l9.65,0.07l0.06-17.65l-15.79,9.04C437.37,532.92,438.88,537.2,438.88,537.2z
		"/>
	<path id="XMLID_13427_" class="st24" d="M335.86,536.61l9.62,0.05c0,0,1.56-4.11,6.17-8.46l-15.67-9.15L335.86,536.61z"/>
	<path id="XMLID_13426_" class="st24" d="M401.66,627.76c-2.79,2.5-2.81,5.83-0.03,8.36c0.49,0.45,1.05,0.87,1.63,1.23
		c5.48-3.33,14.61-3.3,20.04,0.09c0.58-0.35,1.17-0.75,1.68-1.2c2.77-2.51,2.81-5.83,0.03-8.34
		C419.54,622.87,407.2,622.81,401.66,627.76z"/>
	<path id="XMLID_13423_" class="st25" d="M440.42,628.58c-0.6-1.56-1.62-3.06-3.01-4.47c-0.19-0.17-0.33-0.34-0.52-0.49l9.17-5.25
		l-8.73-5.12l-9.16,5.24c-2.67-0.99-5.55-1.68-8.55-2.09l0.06-7.46l-12.46-0.06l-0.04,7.45c-2.98,0.38-5.86,1.05-8.53,1.98
		l-9.12-5.3l-8.82,5.04l9.1,5.31c-0.17,0.15-0.34,0.34-0.47,0.49c-1.42,1.39-2.45,2.89-3.11,4.42l-4.59-0.03l-8.33-0.05l-0.02,7.2
		l12.93,0.06c0.23,0.59,0.56,1.2,0.91,1.79c0.67,1.08,1.52,2.14,2.59,3.16l-9.18,5.23l0.99,0.57l7.63,4.47l0.16,0.08l9.15-5.23
		c0.83,0.31,1.7,0.57,2.56,0.83c1.91,0.54,3.93,0.97,5.99,1.26l-0.03,2.18l-0.04,5.28l12.47,0.07v-5.28l0.03-2.18
		c2.07-0.27,4.05-0.66,5.99-1.19c0.89-0.26,1.71-0.53,2.56-0.79l9.07,5.31l0.21-0.09l7.66-4.38l0.98-0.58l-9.12-5.31
		c1.11-1,1.96-2.04,2.61-3.13c0.4-0.59,0.71-1.19,0.94-1.79l12.96,0.06l0.04-7.18l-8.3-0.04L440.42,628.58z M424.98,636.25
		c-0.51,0.45-1.1,0.84-1.68,1.2c-5.44,3.32-14.63,3.27-20.04-0.09c-0.57-0.37-1.14-0.79-1.63-1.23c-2.78-2.53-2.76-5.86,0.03-8.36
		c5.53-4.95,17.87-4.88,23.34,0.15C427.78,630.41,427.75,633.74,424.98,636.25z"/>
	<polygon id="XMLID_13422_" class="st26" points="380.47,656.41 389.25,661.54 389.32,650.75 380.53,645.63 	"/>
	<polygon id="XMLID_13421_" class="st24" points="389.25,661.54 398.43,656.29 398.47,645.53 389.32,650.75 	"/>
	<path id="XMLID_13419_" class="st26" d="M398.43,656.29c4.34,1.61,8.53,2.09,8.53,2.09l0.07-10.77c0,0-5.97-0.98-8.55-2.09
		L398.43,656.29z"/>
	<polygon id="XMLID_13418_" class="st24" points="373.21,646.16 380.53,646.2 380.53,645.63 386.16,642.41 386.2,635.45 
		373.27,635.39 	"/>
	<path id="XMLID_13417_" class="st26" d="M386.16,642.41l3.55-2.01c-2.41-2.1-3.51-4.95-3.51-4.95L386.16,642.41z"/>
	<polygon id="XMLID_13416_" class="st26" points="427.95,656.46 437.07,661.79 437.09,651.01 428.01,645.7 	"/>
	<polygon id="XMLID_13415_" class="st24" points="437.07,661.79 445.92,656.76 445.93,645.97 437.09,651.01 	"/>
	<path id="XMLID_13414_" class="st24" d="M419.46,647.68c0,0-0.03,10.13-0.07,10.77c4.42-0.43,8.57-2,8.57-2s0.11-11.49,0.06-10.75
		C424.37,647.04,419.46,647.68,419.46,647.68z"/>
	<polygon id="XMLID_13413_" class="st26" points="440.34,642.7 445.93,645.97 445.93,646.56 453.25,646.56 453.33,635.81 
		440.37,635.74 	"/>
	<path id="XMLID_13412_" class="st24" d="M436.81,640.66l3.53,2.04l0.02-6.95C438.99,638.78,436.81,640.66,436.81,640.66z"/>
	<path id="XMLID_13411_" class="st24" d="M440.42,628.58l5.6,0.05l0.04-10.25l-9.17,5.25C439.55,626.1,440.42,628.58,440.42,628.58z
		"/>
	<path id="XMLID_13410_" class="st24" d="M380.62,628.23l5.58,0.03c0,0,0.9-2.38,3.58-4.91l-9.1-5.31L380.62,628.23z"/>
	<path id="XMLID_13409_" class="st24" d="M483.69,596.74c-1.89,1.69-1.9,3.95-0.02,5.66c0.33,0.3,0.71,0.59,1.1,0.84
		c3.71-2.25,9.89-2.23,13.57,0.07c0.39-0.24,0.8-0.51,1.14-0.82c1.87-1.7,1.9-3.95,0.02-5.65
		C495.79,593.44,487.44,593.39,483.69,596.74z"/>
	<path id="XMLID_13406_" class="st25" d="M509.93,597.3c-0.4-1.07-1.09-2.08-2.04-3.03c-0.13-0.11-0.22-0.23-0.35-0.33l6.21-3.55
		l-5.92-3.47l-6.2,3.55c-1.8-0.67-3.75-1.14-5.79-1.42l0.04-5.05l-8.44-0.04l-0.03,5.05c-2.02,0.26-3.97,0.72-5.78,1.34l-6.18-3.59
		l-5.97,3.41l6.16,3.6c-0.11,0.1-0.23,0.24-0.32,0.33c-0.97,0.95-1.66,1.97-2.1,3l-3.11-0.02l-5.64-0.03l-0.01,4.88l8.75,0.04
		c0.16,0.4,0.38,0.82,0.62,1.21c0.46,0.73,1.03,1.45,1.76,2.14l-6.21,3.55l0.67,0.39l5.17,3.03l0.11,0.05l6.2-3.53
		c0.55,0.21,1.15,0.38,1.73,0.55c1.29,0.37,2.66,0.67,4.05,0.86l-0.02,1.48l-0.02,3.57l8.45,0.05v-3.57l0.02-1.48
		c1.4-0.18,2.74-0.45,4.06-0.8c0.6-0.18,1.16-0.36,1.73-0.54l6.14,3.6l0.14-0.06l5.18-2.96l0.67-0.4l-6.18-3.59
		c0.75-0.68,1.33-1.38,1.77-2.12c0.27-0.4,0.48-0.8,0.64-1.21l8.78,0.05l0.02-4.87l-5.62-0.03H509.93z M499.48,602.49
		c-0.34,0.31-0.74,0.57-1.14,0.82c-3.69,2.25-9.9,2.21-13.57-0.07c-0.39-0.25-0.77-0.54-1.1-0.84c-1.88-1.71-1.87-3.97,0.02-5.66
		c3.75-3.35,12.1-3.3,15.8,0.1C501.37,598.54,501.35,600.79,499.48,602.49z"/>
	<polygon id="XMLID_13405_" class="st26" points="469.34,616.15 475.29,619.61 475.33,612.31 469.38,608.85 	"/>
	<polygon id="XMLID_13404_" class="st24" points="475.29,619.61 481.5,616.06 481.53,608.78 475.33,612.31 	"/>
	<polygon id="XMLID_13403_" class="st26" points="487.24,622.53 495.66,622.58 495.72,615.28 487.27,615.23 	"/>
	<path id="XMLID_13402_" class="st26" d="M481.5,616.06c2.94,1.09,5.77,1.42,5.77,1.42l0.05-7.29c0,0-4.04-0.66-5.79-1.41
		L481.5,616.06z"/>
	<polygon id="XMLID_13401_" class="st24" points="464.42,609.2 469.38,609.23 469.38,608.85 473.19,606.67 473.22,601.95 
		464.47,601.92 	"/>
	<path id="XMLID_13400_" class="st26" d="M473.19,606.67l2.41-1.37c-1.63-1.42-2.37-3.35-2.37-3.35L473.19,606.67z"/>
	<polygon id="XMLID_13399_" class="st26" points="501.49,616.17 507.66,619.78 507.67,612.49 501.53,608.9 	"/>
	<polygon id="XMLID_13398_" class="st24" points="507.66,619.78 513.66,616.38 513.67,609.07 507.67,612.49 	"/>
	<path id="XMLID_13397_" class="st24" d="M495.74,610.24c0,0-0.02,6.86-0.05,7.29c2.99-0.3,5.8-1.35,5.8-1.35s0.08-7.78,0.04-7.28
		C499.06,609.8,495.74,610.24,495.74,610.24z"/>
	<polygon id="XMLID_13396_" class="st26" points="509.88,606.87 513.67,609.07 513.67,609.47 518.62,609.47 518.67,602.2 
		509.9,602.15 	"/>
	<path id="XMLID_13395_" class="st24" d="M507.49,605.49l2.39,1.38l0.01-4.72C508.96,604.21,507.49,605.49,507.49,605.49z"/>
	<path id="XMLID_13394_" class="st24" d="M509.93,597.3l3.79,0.03l0.03-6.94l-6.21,3.55C509.34,595.62,509.93,597.3,509.93,597.3z"
		/>
	<path id="XMLID_13393_" class="st24" d="M469.44,597.07l3.79,0.02c0,0,0.61-1.62,2.42-3.33l-6.16-3.6L469.44,597.07z"/>
</g>
<g>
	<path id="XMLID_13537_" class="st11" d="M958.76,498.56c-17.64-10.18-46.25-10.18-63.89,0c-17.63,10.18-17.64,26.7,0,36.89
		c17.64,10.18,46.23,10.17,63.89,0C976.39,525.26,976.39,508.74,958.76,498.56z"/>
	<path id="XMLID_13536_" class="st3" d="M958.76,535.45c-17.66,10.17-46.25,10.19-63.89,0c-8.45-4.88-12.85-11.22-13.19-17.61
		l-0.01,0l0.01,33.62l0,0c0.33,6.41,4.71,12.77,13.19,17.66c17.64,10.19,46.24,10.18,63.88,0c8.62-4.98,13.01-11.46,13.22-17.98
		l0.01,0l-0.01-33.92C971.89,523.82,967.47,530.41,958.76,535.45z"/>
	<path id="XMLID_13535_" class="st27" d="M958.76,535.45c-17.66,10.17-46.25,10.19-63.89,0c-8.45-4.88-12.85-11.22-13.19-17.61
		l-0.01,0l0.02,1.49c0,0-0.02,10.03,13.2,17.64c17.64,10.19,46.23,10.2,63.87,0.01c8.61-4.98,13.01-11.46,13.21-17.98l0-1.77
		C971.89,523.82,967.47,530.41,958.76,535.45z"/>
	<path id="XMLID_13534_" class="st8" d="M958.72,546.43c-17.64,10.17-46.24,10.18-63.87,0c-8.45-4.88-12.84-11.21-13.2-17.62h-0.01
		l0.01,1.49c0,0-0.02,10.04,13.21,17.66c17.64,10.18,46.23,10.18,63.87-0.01c8.61-4.96,13.01-11.45,13.22-17.98l-0.01-1.77
		C971.85,534.8,967.45,541.39,958.72,546.43z"/>
	<path id="XMLID_13533_" class="st8" d="M958.73,557.78c-17.64,10.18-46.23,10.18-63.87-0.01c-8.45-4.88-12.84-11.21-13.18-17.6
		h-0.01l0.02,1.49c0,0-0.03,10.02,13.19,17.64c17.65,10.19,46.24,10.18,63.89,0c8.62-4.97,13.01-11.46,13.2-17.98v-1.77
		C971.86,546.16,967.46,552.74,958.73,557.78z"/>
	<path id="XMLID_13532_" class="st11" d="M969.2,532.03l-4.31,1.45l-6.06,8.32l-5.81-1.12l-5.42,6.81l-6.88-3.23l-6.3,5.96
		l-6.88-4.7l-7.12,4.16l-5.89-5.13l-7.73,2.34l-5.18-5.79l-7.81,0.37l-3.38-6.57l-4.74-0.47l-2.06-7.35l-1.96-2.01l-0.02,1.14
		l1.62,1.35l2.1,7.71l4.72,0.55l3.21,6.63l8.1-0.25l5.07,5.79l7.74-2.32l6.02,5.18l7.28-4.14l6.68,4.72l6.36-5.94l7.1,3.18
		l5.32-6.77l5.85,1.1l6.2-8.44l4.18-1.34c0,0,2.09-7.54,2.49-9.7c0.16-0.8,0.25-1.61,0.28-2.41v0l0.03-1.45
		c-0.01,1.19-0.18,2.37-0.47,3.54C971.05,525.04,969.2,532.03,969.2,532.03z"/>
	<path id="XMLID_13531_" class="st11" d="M969.22,543.89l-4.31,1.45l-6.07,8.33l-5.8-1.13l-5.42,6.8l-6.87-3.23l-6.31,5.95
		l-6.87-4.7l-7.12,4.15l-5.89-5.13l-7.73,2.34l-5.18-5.79l-7.81,0.38l-3.38-6.57l-4.75-0.47l-2.06-7.35l-1.96-2.01l-0.02,1.14
		l1.61,1.35l2.1,7.71l4.72,0.55l3.22,6.62l8.1-0.24l5.06,5.8l7.75-2.31l6.04,5.16l7.26-4.14l6.69,4.72l6.36-5.95l7.1,3.19l5.32-6.77
		l5.85,1.1l6.19-8.43l4.19-1.34c0,0,2.09-7.57,2.5-9.71c0.15-0.8,0.25-1.6,0.27-2.41l0.01,0l0.01-1.44
		c-0.02,1.18-0.17,2.37-0.47,3.54C971.07,536.91,969.22,543.89,969.22,543.89z"/>
	<path id="XMLID_13530_" class="st11" d="M969.22,555.63l-4.32,1.45l-6.06,8.34l-5.8-1.12l-5.42,6.79l-6.89-3.22l-6.31,5.95
		l-6.87-4.71l-7.12,4.16l-5.89-5.12l-7.73,2.34l-5.18-5.8l-7.8,0.37l-3.39-6.56l-4.75-0.47l-2.05-7.36l-1.96-2l-0.01,1.14l1.61,1.35
		l2.1,7.71l4.73,0.56l3.23,6.61l8.08-0.24l5.06,5.8l7.75-2.32l6.03,5.16l7.28-4.14l6.69,4.72l6.34-5.94l7.12,3.18l5.31-6.77
		l5.85,1.1l6.18-8.43l4.19-1.34c0,0,2.09-7.56,2.49-9.7c0.16-0.8,0.26-1.62,0.27-2.42l0.01,0l0.02-1.44
		c-0.02,1.18-0.17,2.35-0.46,3.54C971.07,548.66,969.22,555.63,969.22,555.63z"/>
	<path id="XMLID_13529_" class="st28" d="M949.48,503.92c-12.51-7.22-32.81-7.21-45.33,0c-12.51,7.23-12.51,18.95,0,26.17
		c12.52,7.23,32.81,7.23,45.33,0.01C962,522.87,962,511.15,949.48,503.92z"/>
	<path id="XMLID_13528_" class="st29" d="M946.6,505.59c-10.92-6.31-28.65-6.31-39.57-0.01c-10.94,6.32-10.93,16.55,0,22.86
		c10.92,6.31,28.64,6.31,39.58,0C957.53,522.12,957.53,511.89,946.6,505.59z"/>
	<path id="XMLID_13527_" class="st5" d="M933.82,512.97c-3.87-2.24-10.12-2.24-14-0.01c-3.86,2.24-3.86,5.86-0.01,8.09
		c3.88,2.24,10.15,2.23,14.01-0.01C937.69,518.81,937.68,515.2,933.82,512.97z"/>
	<path id="XMLID_13526_" class="st13" d="M928.67,515.95c-1.04-0.6-2.69-0.59-3.7-0.01c-1.02,0.58-1.03,1.54,0,2.13
		c1.02,0.59,2.67,0.59,3.69,0C929.68,517.49,929.67,516.53,928.67,515.95z"/>
	<path id="XMLID_13525_" class="st30" d="M926.79,519.51c-1.02,0-1.84,0.47-1.84,1.08c-0.01,0.19,0.08,0.37,0.24,0.52
		c0.25-0.43,0.94-0.72,1.73-0.71c0.69,0.01,1.28,0.21,1.61,0.53c0.07-0.1,0.1-0.23,0.11-0.36
		C928.64,519.98,927.81,519.5,926.79,519.51z"/>
	<path id="XMLID_13524_" class="st8" d="M925.2,521.1c0.32,0.31,0.91,0.53,1.6,0.55c0.79,0,1.48-0.3,1.74-0.72
		c-0.32-0.32-0.92-0.52-1.61-0.53C926.14,520.38,925.45,520.68,925.2,521.1z"/>
	<path id="XMLID_13523_" class="st30" d="M920.63,515.87c-1.03,0-1.85,0.48-1.85,1.06c0,0.19,0.1,0.37,0.25,0.52
		c0.26-0.42,0.95-0.7,1.74-0.7c0.69,0.02,1.28,0.21,1.59,0.55c0.08-0.11,0.12-0.24,0.12-0.36
		C922.45,516.34,921.65,515.88,920.63,515.87z"/>
	<path id="XMLID_13522_" class="st8" d="M919.03,517.45c0.31,0.33,0.91,0.54,1.6,0.55c0.79,0.02,1.47-0.29,1.72-0.7
		c-0.31-0.34-0.9-0.53-1.59-0.55C919.98,516.75,919.29,517.03,919.03,517.45z"/>
	<path id="XMLID_13521_" class="st30" d="M926.93,512.32c-1.02-0.01-1.85,0.48-1.85,1.06c0.01,0.2,0.1,0.37,0.26,0.52
		c0.24-0.4,0.95-0.72,1.72-0.7c0.69,0.01,1.27,0.21,1.59,0.54c0.06-0.11,0.12-0.24,0.12-0.36
		C928.76,512.79,927.94,512.31,926.93,512.32z"/>
	<path id="XMLID_13520_" class="st8" d="M925.34,513.9c0.3,0.33,0.9,0.55,1.58,0.55c0.79,0.01,1.48-0.31,1.73-0.71
		c-0.32-0.33-0.9-0.53-1.59-0.54C926.28,513.18,925.58,513.49,925.34,513.9z"/>
	<path id="XMLID_13519_" class="st30" d="M933.09,515.95c-1.01-0.01-1.86,0.46-1.86,1.06c0,0.21,0.09,0.37,0.25,0.53
		c0.26-0.42,0.94-0.73,1.74-0.71c0.69,0,1.3,0.22,1.62,0.55c0.07-0.11,0.11-0.23,0.11-0.36
		C934.94,516.42,934.1,515.95,933.09,515.95z"/>
	<path id="XMLID_13518_" class="st8" d="M931.48,517.54c0.31,0.31,0.93,0.53,1.61,0.53c0.8,0.02,1.49-0.3,1.74-0.7
		c-0.31-0.32-0.92-0.55-1.62-0.55C932.42,516.81,931.73,517.12,931.48,517.54z"/>
	<path id="XMLID_13517_" class="st30" d="M939.55,524.36c-2.56,1.48-3.43,3.55-2.63,5.44c0.28-1.22,1.2-2.39,2.83-3.32
		c3.01-1.73,7.43-2.13,11.1-1.19c0.54-0.52,1.02-1.05,1.44-1.58C948.4,522.14,943.01,522.35,939.55,524.36z"/>
	<path id="XMLID_13516_" class="st8" d="M939.75,526.47c-1.63,0.93-2.55,2.09-2.83,3.32c0.29,0.67,0.78,1.32,1.5,1.92
		c2.97-0.78,5.75-1.88,8.2-3.28c1.67-0.97,3.09-2.03,4.24-3.15C947.18,524.34,942.75,524.74,939.75,526.47z"/>
	<path id="XMLID_13515_" class="st30" d="M901.75,509.83c-2.43,2.83-3.34,6-2.71,9.07c0.06-2.4,1.04-4.77,2.91-6.97
		c3.2,0.66,5.59,2.2,6.37,4.09c0.02-0.06,0.03-0.14,0.05-0.2C908.82,513.13,905.99,510.69,901.75,509.83z"/>
	<path id="XMLID_13514_" class="st8" d="M901.94,511.94c-1.86,2.2-2.85,4.57-2.91,6.97c0.14,0.7,0.35,1.38,0.64,2.07
		c4.41-0.32,8.03-2.31,8.64-4.95C907.53,514.14,905.14,512.6,901.94,511.94z"/>
	<path id="XMLID_13513_" class="st30" d="M918.48,526.35c-4.32-1.24-9.43-0.54-12.3,1.56c0.27,0.17,0.56,0.35,0.85,0.52
		c0.36,0.21,0.72,0.41,1.1,0.6c2.95-1.29,7-1.58,10.54-0.58c2.71,0.81,4.55,2.22,5.2,3.82C924.41,529.89,922.37,527.5,918.48,526.35
		z"/>
	<path id="XMLID_13512_" class="st8" d="M918.67,528.45c-3.54-1-7.59-0.7-10.54,0.58c4.45,2.32,9.89,3.64,15.45,4.02
		c0.13-0.25,0.21-0.52,0.29-0.78C923.21,530.67,921.38,529.26,918.67,528.45z"/>
	<path id="XMLID_13511_" class="st30" d="M914.18,502.59c0.38,0.64,0.93,1.21,1.64,1.72c5.3-1.33,11.13-1.66,16.72-1.03
		c0.53-0.61,0.88-1.27,0.99-1.96C927.1,500.39,920.2,500.82,914.18,502.59z"/>
	<path id="XMLID_13510_" class="st8" d="M915.81,504.31c2.04,1.47,5.28,2.34,8.77,2.15c3.56-0.2,6.47-1.45,7.95-3.18
		C926.94,502.65,921.11,502.98,915.81,504.31z"/>
	<path id="XMLID_13509_" class="st30" d="M946.6,505.59c-0.28-0.16-0.58-0.32-0.87-0.49c-3.17,1.39-4.62,3.76-3.68,5.98
		c0.33-1.5,1.7-2.91,3.88-3.86c0.3,0.16,0.58,0.31,0.88,0.48c3.76,2.17,6.21,4.8,7.39,7.58c0.16-0.02,0.29-0.05,0.43-0.06
		C953.94,511.69,951.28,508.29,946.6,505.59z"/>
	<path id="XMLID_13508_" class="st8" d="M946.8,507.7c-0.3-0.17-0.58-0.33-0.88-0.48c-2.18,0.95-3.55,2.36-3.88,3.86
		c0.17,0.41,0.44,0.83,0.78,1.22c2.15,2.46,6.93,3.65,11.36,2.98C953.02,512.49,950.56,509.87,946.8,507.7z"/>
</g>
</svg>
